<svg width="22" height="26" viewBox="0 0 22 26" fill="none" xmlns="http://www.w3.org/2000/svg">
<path d="M17.9865 11.9466C17.9888 11.8179 17.991 11.6893 18.006 11.533C18.0414 11.3969 18.0639 11.2884 18.0865 11.18C18.0915 11.1612 18.0964 11.1425 18.1157 11.1036C18.1882 11.0044 18.2463 10.9254 18.3043 10.8463C18.3183 10.8395 18.3322 10.8327 18.3732 10.8217C18.5716 10.7831 18.7429 10.7487 18.9143 10.7144C18.9593 10.7182 19.0044 10.722 19.0862 10.7311C19.6682 10.7381 20.2134 10.7382 20.7586 10.7421C21.0542 10.7443 21.1503 10.8388 21.1129 11.0966C21.0668 11.0935 21.0404 11.0918 21.0034 11.0792C20.9254 11.0186 20.8581 10.969 20.8057 10.9181C20.8385 10.9024 20.8565 10.888 20.8744 10.8735C20.8672 10.8722 20.8599 10.8696 20.8526 10.8696C20.291 10.8704 19.7294 10.8701 19.1678 10.876C19.1405 10.8763 19.1138 10.9311 19.071 10.9673C18.9764 10.9719 18.8962 10.9786 18.8193 10.9656C18.5207 10.915 18.3315 11.0297 18.2895 11.328C18.2421 11.6655 18.1986 12.0067 18.1961 12.3466C18.1917 12.9345 18.2233 13.5226 18.2337 14.1108C18.2404 14.4889 18.3245 14.5439 18.6964 14.5006C18.8814 14.4791 19.0814 14.5346 19.2659 14.5864C19.3366 14.6063 19.4304 14.7123 19.4313 14.7802C19.4337 14.9687 19.5442 15.149 19.4478 15.3499C19.3952 15.4593 19.4428 15.6143 19.3975 15.7301C19.3002 15.9787 18.9936 16.0808 18.7237 15.9795C18.4239 15.867 18.2359 15.9901 18.2353 16.301C18.2344 16.6968 18.2405 17.0926 18.2326 17.4882C18.2285 17.6929 18.3342 17.77 18.5165 17.7755C18.6731 17.7803 18.8359 17.7505 18.9851 17.7842C19.1167 17.814 19.2821 17.8796 19.3476 17.9832C19.5733 18.34 19.4648 18.7261 19.3582 19.0948C19.3378 19.1651 19.2091 19.2372 19.1226 19.2483C18.9389 19.2719 18.7499 19.2628 18.5637 19.2538C18.4106 19.2464 18.3207 19.3117 18.2367 19.4367C18.0559 19.7057 17.7776 19.8232 17.4712 19.8618C17.5784 19.7682 17.6823 19.6895 17.7862 19.6109C17.7943 19.5988 17.8025 19.5867 17.8359 19.5709C17.8814 19.5389 17.9017 19.5106 17.9219 19.4823C17.946 19.3964 17.9701 19.3105 18.0069 19.1989C18.1059 19.1419 18.1913 19.0874 18.2789 19.0836C18.5242 19.073 18.7704 19.0823 19.0162 19.0859C19.1647 19.0882 19.2358 19.0193 19.2343 18.8696C19.232 18.6462 19.233 18.4227 19.2338 18.1992C19.2344 18.0344 19.1604 17.9646 18.9951 18.0073C18.8449 18.0047 18.6947 18.0022 18.5134 17.9903C18.4006 17.9895 18.3188 17.998 18.2371 18.0064C18.2025 18.0051 18.1679 18.0038 18.111 17.9923C18.0577 17.9643 18.0268 17.9466 17.996 17.9289C17.9944 17.4732 17.9927 17.0175 17.9986 16.5255C18.0004 16.3627 17.9947 16.2362 17.989 16.1097C17.9913 16.0928 17.9935 16.0759 18.0009 16.029C17.9961 15.8519 18.07 15.8043 18.2098 15.8082C18.471 15.8154 18.7327 15.8077 18.9939 15.8139C19.1627 15.8179 19.2428 15.752 19.237 15.5766C19.2299 15.3602 19.2296 15.1433 19.2363 14.9269C19.2417 14.7539 19.1647 14.6819 18.9958 14.6842C18.7345 14.6879 18.4727 14.6923 18.2119 14.6803C18.1347 14.6768 18.06 14.6193 17.9842 14.5865C17.9884 14.5559 17.9927 14.5253 18.0021 14.4595C18.0005 14.2108 17.9938 13.9972 17.9871 13.7835C17.9879 13.4097 17.9886 13.0359 17.997 12.6255C17.9986 12.3747 17.9926 12.1607 17.9865 11.9466Z" fill="#E2624B"/>
<path d="M1.01225 25.9196C0.936385 25.9156 0.860521 25.9116 0.763792 25.8869C0.607142 25.803 0.471359 25.7399 0.335576 25.6767C0.312803 25.6517 0.290031 25.6266 0.257608 25.5765C0.169962 25.3361 0.0919682 25.1207 0.0139732 24.9053C0.0116496 22.7999 0.00770511 20.6944 0.00738423 18.589C0.00690462 15.4458 0.00897636 12.3025 0.0255445 9.13063C0.111196 8.92878 0.181266 8.75557 0.262069 8.5874C0.282708 8.60451 0.292614 8.61656 0.301244 8.64644C0.270078 8.77667 0.214141 8.88905 0.214045 9.00148C0.209563 14.2329 0.209055 19.4643 0.21319 24.6957C0.213348 24.8936 0.233075 25.1021 0.29727 25.2871C0.437697 25.6916 0.806784 25.7631 1.1636 25.8369C1.10738 25.8744 1.05981 25.897 1.01225 25.9196Z" fill="#E2624B"/>
<path d="M10.065 22.9995C9.83931 23.2061 9.7797 23.464 9.78623 23.764C9.80069 24.4281 9.7858 25.0929 9.79439 25.7572C9.79678 25.9421 9.74182 26.0029 9.55073 26.0001C8.80443 25.9895 8.05787 25.9948 7.31142 25.9964C6.96987 25.9971 6.9571 25.9847 6.95656 25.65C6.9554 24.9184 6.9553 24.1868 6.94727 23.4553C6.94415 23.1717 6.68971 22.9346 6.43769 22.9083C6.11685 22.8749 5.94028 23.1939 5.94253 23.4891C5.9481 24.2204 5.95171 24.9516 5.9562 25.6829C5.95809 25.99 5.95321 25.9992 5.6445 25.9894C5.22811 25.9763 4.81203 25.9537 4.39568 25.9389C4.21741 25.9326 4.14265 25.8416 4.14273 25.6691C4.14358 23.9595 4.13082 22.2496 4.15174 20.5402C4.15703 20.1077 4.42359 19.8355 4.90669 19.7817C4.92335 19.7953 4.91769 19.804 4.9014 19.8031C4.6608 19.8991 4.39459 19.9428 4.32291 20.2562C4.27884 20.3825 4.20803 20.4934 4.20759 20.6045C4.20102 22.2702 4.20034 23.936 4.2132 25.6017C4.21393 25.6954 4.33919 25.864 4.4148 25.8688C4.85362 25.8971 5.29493 25.8868 5.73539 25.8896C5.73239 25.8571 5.72939 25.8246 5.73277 25.781C5.74987 25.7382 5.76059 25.7064 5.78417 25.6604C5.81781 24.9968 5.84418 24.3476 5.85303 23.6982C5.85428 23.6066 5.77008 23.5138 5.72617 23.4047C5.75554 23.3039 5.78823 23.2211 5.81203 23.1359C5.88694 22.8676 6.10353 22.7398 6.33733 22.6771C6.54982 22.6201 6.72318 22.7543 6.87894 22.9067C7.13161 23.1539 7.21479 23.4517 7.20308 23.7922C7.18471 24.3267 7.1726 24.8614 7.15651 25.396C7.15171 25.5558 7.13014 25.7219 7.36523 25.7331C7.54356 25.7417 7.72234 25.7475 7.89984 25.7653C8.46418 25.8221 9.02515 25.8324 9.58758 25.6818C9.6344 25.6531 9.7022 25.6134 9.70193 25.5742C9.69767 24.9421 9.68166 24.3101 9.67606 23.678C9.67472 23.5277 9.70163 23.3772 9.71618 23.2258C9.71682 23.2247 9.71595 23.2225 9.72751 23.2102C9.74669 23.1659 9.7543 23.1337 9.76218 23.0949C9.76244 23.0881 9.76261 23.0746 9.77894 23.0745C9.88519 23.0494 9.97511 23.0244 10.065 22.9995Z" fill="#E2624B"/>
<path d="M10.0831 23.003C9.9757 23.024 9.88578 23.049 9.78076 23.0579C10.1152 22.5797 10.5976 22.6883 10.8358 23.1648C11.0212 23.5359 10.9552 23.9443 10.9571 24.3402C10.9594 24.8052 10.9577 25.2703 10.9577 25.7492C11.1946 25.7692 11.3863 25.8007 11.5775 25.7986C12.0812 25.7931 12.5846 25.7661 13.0882 25.7629C13.2522 25.7619 13.3098 25.7197 13.3072 25.5487C13.2979 24.9285 13.296 24.308 13.3078 23.6879C13.3113 23.5078 13.3345 23.3124 13.4094 23.1524C13.632 22.6769 14.1698 22.4805 14.5862 22.9645C14.6371 23.0236 14.7148 23.0634 14.708 23.2084C14.6759 23.8869 14.6795 24.5683 14.6997 25.2478C14.7128 25.6878 14.7336 25.6987 15.1695 25.7692C15.3921 25.8053 15.6229 25.8008 15.8498 25.7977C16.2409 25.7924 16.6318 25.763 17.0228 25.7638C17.4587 25.7647 17.8947 25.8005 18.3305 25.7985C19.0089 25.7953 19.6873 25.773 20.3657 25.7588C20.3881 25.7584 20.4118 25.7621 20.4327 25.7563C20.6179 25.7043 20.8201 25.6757 20.8813 25.4444C20.8811 25.4438 20.8823 25.4442 20.8932 25.4436C20.904 25.4429 20.9256 25.4408 20.9319 25.4553C20.9366 25.5412 20.9349 25.6126 20.9257 25.6976C20.7383 25.7832 20.5588 25.9165 20.3782 25.9181C18.5011 25.9348 16.6238 25.9316 14.7466 25.926C14.6803 25.9258 14.6144 25.8436 14.5483 25.7996C14.5495 25.0234 14.5507 24.2472 14.5547 23.4338C14.5015 23.055 14.3495 22.8894 14.0889 22.8862C13.7967 22.8827 13.5944 23.0513 13.5424 23.3417C13.5369 23.3738 13.5314 23.4059 13.5143 23.4676C13.4957 23.5784 13.4831 23.6597 13.4828 23.741C13.4798 24.3835 13.467 25.0263 13.4844 25.6682C13.4905 25.8911 13.4063 25.9354 13.216 25.9341C12.4989 25.9293 11.7815 25.9236 11.0646 25.9376C10.8463 25.9419 10.8038 25.8602 10.8051 25.6658C10.8098 24.9338 10.8005 24.2016 10.8058 23.4616C10.7934 23.429 10.7718 23.4044 10.7412 23.3771C10.7321 23.3746 10.7135 23.3774 10.7135 23.3774C10.7009 23.3278 10.6883 23.2782 10.6651 23.201C10.5989 23.1218 10.5433 23.0701 10.4876 23.0184C10.4658 23.0145 10.444 23.0105 10.4017 22.9877C10.3226 22.9758 10.264 22.9828 10.2054 22.9898C10.1705 22.9955 10.1355 23.0012 10.0831 23.003Z" fill="#E2624B"/>
<path d="M4.91802 19.8037C4.91802 19.8037 4.92367 19.7951 4.92302 19.79C5.12347 19.7793 5.32456 19.7688 5.52565 19.7687C9.20866 19.7682 12.8917 19.769 16.5747 19.7694C16.7988 19.7695 17.0228 19.7696 17.2748 19.786C17.3477 19.8288 17.3927 19.8551 17.4191 19.8843C17.2478 19.9159 17.0952 19.9697 16.9425 19.9699C12.9193 19.974 8.89604 19.9725 4.87402 19.9573C4.88948 19.8963 4.90375 19.85 4.91802 19.8037Z" fill="#E2624B"/>
<path d="M13.6411 9.14128C13.9486 9.1138 13.9488 9.1138 13.9488 9.39476C13.9487 10.1706 13.9483 10.9465 13.948 11.7224C13.948 11.8018 13.948 11.8812 13.948 11.9755C13.3593 11.9755 12.8012 11.9754 12.2431 11.9755C11.9447 11.9756 11.6463 11.9711 11.348 11.9779C11.1903 11.9816 11.1502 11.9219 11.1524 11.7648C11.1642 10.938 11.1646 10.111 11.1629 9.28412C11.1626 9.13099 11.249 9.12259 11.3621 9.1236C12.1153 9.13038 12.8685 9.13555 13.6411 9.14128ZM11.429 10.6546C11.4259 10.8613 11.4227 11.068 11.4198 11.3122C11.4347 11.4189 11.4496 11.5255 11.4704 11.6644C11.5283 11.6838 11.5861 11.7032 11.6783 11.7377C11.751 11.7477 11.8236 11.7659 11.8964 11.7663C12.3726 11.7689 12.8488 11.7692 13.3249 11.7659C13.4052 11.7654 13.4954 11.7625 13.5624 11.7264C13.6236 11.6933 13.6979 11.6151 13.7003 11.5542C13.7137 11.2162 13.7056 10.8774 13.7076 10.5388C13.7087 10.3457 13.7181 10.1527 13.7181 9.95959C13.718 9.76974 13.7106 9.5799 13.6978 9.35491C13.6528 9.33702 13.6079 9.30381 13.5627 9.30355C12.9587 9.30004 12.3547 9.299 11.7507 9.30498C11.6998 9.30548 11.6495 9.36076 11.5644 9.3908C11.5163 9.43489 11.4682 9.47898 11.3946 9.54927C11.4031 9.69149 11.4116 9.8337 11.4201 10.017C11.4348 10.2267 11.4495 10.4365 11.429 10.6546Z" fill="#E2624B"/>
<path d="M10.252 11.8619C10.1932 11.9134 10.1351 11.9746 10.0766 11.975C9.22659 11.9812 8.3765 11.9792 7.50782 11.9792C7.49971 11.9131 7.48691 11.857 7.48684 11.8008C7.48574 10.9875 7.49109 10.1742 7.48296 9.36094C7.48111 9.17583 7.53188 9.12423 7.72315 9.12616C8.51365 9.13412 9.30438 9.12301 10.095 9.11428C10.2473 9.11261 10.2546 9.19068 10.2539 9.31408C10.2491 10.1571 10.2521 11.0002 10.252 11.8619ZM7.79448 9.34663C7.73276 9.39345 7.62679 9.43325 7.61804 9.48846C7.5964 9.62506 7.61728 9.76881 7.62479 9.90949C7.63244 10.0529 7.65121 10.1959 7.65326 10.3393C7.65735 10.6257 7.64136 10.913 7.65889 11.1983C7.6654 11.3044 7.78104 11.4066 7.77976 11.5098C7.77681 11.7465 7.90671 11.7446 8.07977 11.7402C8.32299 11.7342 8.56687 11.7586 8.81029 11.7556C9.20186 11.7507 9.59329 11.734 10.0201 11.7138C10.0382 11.6689 10.0718 11.624 10.072 11.5789C10.0754 10.9148 10.0764 10.2507 10.0705 9.58664C10.0701 9.53606 10.0142 9.48598 9.96113 9.42551C9.93906 9.41373 9.91699 9.40195 9.88651 9.35492C9.83441 9.33696 9.78242 9.30371 9.73021 9.30338C9.15196 9.29967 8.57367 9.29983 7.99541 9.30305C7.94061 9.30335 7.88596 9.33142 7.79448 9.34663Z" fill="#E2624B"/>
<path d="M3.07983 8.94321C3.07983 8.94321 3.06551 8.95347 3.04163 8.95094C2.90485 9.0524 2.79196 9.15638 2.67908 9.26037C2.63874 9.29771 2.5984 9.33505 2.53017 9.37974C2.43538 9.51418 2.36848 9.64129 2.30158 9.76839C2.3009 14.0674 2.3003 18.3663 2.2995 22.6653C2.29932 23.6654 2.29891 24.6655 2.29693 25.6656C2.29679 25.739 2.28302 25.8123 2.2384 25.8923C1.96738 25.8987 1.73333 25.9039 1.49982 25.895C1.42797 25.8923 1.35758 25.8509 1.30908 25.8195C1.37647 25.8083 1.4213 25.8046 1.48384 25.8013C1.54881 25.8013 1.59607 25.801 1.66038 25.8012C1.71158 25.8015 1.74571 25.8013 1.79951 25.8014C1.84868 25.8018 1.87819 25.8021 1.9077 25.8019C2.19605 25.8 2.21289 25.7783 2.13884 25.494C2.13002 25.4601 2.10955 25.4292 2.09889 25.3864C2.10062 25.34 2.09793 25.3043 2.11262 25.2632C2.14746 25.1823 2.18018 25.1068 2.18022 25.0313C2.18239 20.0571 2.18192 15.0828 2.1819 10.0892C2.13657 9.75563 2.16255 9.46961 2.43563 9.24699C2.96858 8.81252 3.49504 8.37003 4.02059 7.92659C4.17694 7.79467 4.32128 7.64853 4.48772 7.5085C4.53759 7.50664 4.57086 7.50519 4.60276 7.51899C4.58807 7.5725 4.57475 7.61077 4.56144 7.64904C4.50468 7.7126 4.44792 7.77617 4.36509 7.85106C4.24857 7.93908 4.15812 8.01577 4.06767 8.09246C4.06767 8.09246 4.06577 8.0905 4.05226 8.08984C4.01506 8.11527 3.99136 8.14137 3.96766 8.16746C3.96766 8.16746 3.96787 8.17123 3.95327 8.17306C3.91766 8.19994 3.89666 8.22499 3.87566 8.25004C3.87566 8.25004 3.87294 8.25602 3.85537 8.25955C3.77705 8.32186 3.7163 8.38065 3.65555 8.43944C3.65555 8.43944 3.65533 8.44273 3.63827 8.43997C3.54269 8.51164 3.46418 8.58607 3.38567 8.66051C3.32305 8.7209 3.26043 8.78129 3.16991 8.84668C3.12127 8.88219 3.10055 8.9127 3.07983 8.94321Z" fill="#E2624B"/>
<path d="M17.4336 5.35059C17.8869 5.73037 18.3431 6.10672 18.7928 6.49074C19.4911 7.0871 20.1869 7.68652 20.8796 8.28935C21.0973 8.47882 21.1868 8.73536 21.2278 9.04725C21.1211 9.05556 21.0292 9.0687 20.9373 9.06892C20.228 9.07056 19.5186 9.06497 18.8094 9.07202C18.5385 9.07472 18.2963 9.03371 18.1048 8.81869C18.0441 8.75053 17.954 8.70856 17.883 8.64666C17.9897 8.66565 18.0908 8.69256 18.203 8.71915C18.214 8.71881 18.2361 8.7185 18.2472 8.71847C18.2583 8.71845 18.2805 8.7185 18.2806 8.71844C18.2807 8.71839 18.2806 8.71866 18.2836 8.73466C18.3891 8.78483 18.4915 8.81901 18.6053 8.86558C18.7241 8.89657 18.8326 8.93503 18.9387 8.92908C19.0955 8.92028 19.25 8.86073 19.4064 8.85672C19.8297 8.84588 20.2535 8.85452 20.677 8.85139C20.753 8.85083 20.8289 8.831 20.9172 8.81828C20.8364 8.64636 20.7689 8.50263 20.7014 8.34289C20.6422 8.26417 20.583 8.20147 20.5087 8.13758C20.4737 8.13569 20.4536 8.13497 20.4316 8.11788C20.3564 8.05367 20.2831 8.00584 20.1987 7.94969C20.15 7.90088 20.1125 7.86041 20.0745 7.80361C19.9997 7.72506 19.9255 7.66282 19.8359 7.59782C19.7398 7.50583 19.659 7.41662 19.5791 7.31082C19.5056 7.23082 19.4312 7.16741 19.3468 7.09241C19.2691 7.05715 19.2015 7.03348 19.1332 6.99371C19.0881 6.94574 19.0437 6.91387 18.988 6.88084C18.9691 6.87909 18.9615 6.8785 18.9513 6.86292C18.7712 6.68075 18.5938 6.51355 18.401 6.34465C18.3359 6.31209 18.2862 6.28123 18.2347 6.23479C18.1744 6.15671 18.1159 6.0942 18.0462 6.02951C18.0276 6.02603 18.0201 6.02475 18.0102 6.00984C17.9796 5.97799 17.9514 5.95978 17.9063 5.94038C17.8554 5.93864 17.8215 5.93809 17.7873 5.92153C17.7276 5.85662 17.6682 5.80772 17.6037 5.74905C17.5896 5.72709 17.5779 5.71848 17.5619 5.69836C17.5137 5.57659 17.4671 5.46991 17.4238 5.36006C17.4271 5.35691 17.4336 5.35059 17.4336 5.35059Z" fill="#E2624B"/>
<path d="M11.4703 15.8157C11.1617 15.8662 11.1452 15.8504 11.145 15.5562C11.1443 14.7433 11.1447 13.9303 11.1348 13.1175C11.1329 12.9624 11.1765 12.9007 11.3337 12.9013C12.1542 12.9045 12.9748 12.9049 13.7953 12.8989C13.9275 12.898 13.9633 12.9477 13.9629 13.0686C13.9597 13.9339 13.9575 14.7993 13.9623 15.6646C13.963 15.8049 13.9161 15.8419 13.7806 15.8404C13.0794 15.8329 12.3782 15.8345 11.6673 15.8119C11.7386 15.7839 11.8196 15.7712 11.9005 15.771C12.4903 15.7695 13.0802 15.7669 13.6699 15.7732C13.8234 15.7748 13.8997 15.7463 13.8976 15.566C13.8883 14.7821 13.8894 13.9981 13.8953 13.2142C13.8964 13.0579 13.8483 13.0095 13.6904 13.0112C12.9364 13.0193 12.1823 13.0157 11.4283 13.0165C11.3839 13.0166 11.3395 13.0196 11.2951 13.0213C11.3013 13.0579 11.3076 13.0945 11.3165 13.1411C11.3214 13.1649 11.324 13.1786 11.3126 13.206C11.2907 13.2482 11.2768 13.2766 11.2767 13.305C11.2755 13.9973 11.2746 14.6896 11.278 15.3819C11.2783 15.4357 11.311 15.4894 11.3262 15.554C11.322 15.5795 11.3188 15.5938 11.3035 15.6203C11.2226 15.8194 11.4418 15.7249 11.4703 15.8157Z" fill="#E2624B"/>
<path d="M8.09169 15.8187C8.06313 15.8201 8.03457 15.8215 7.98114 15.8087C7.80341 15.7794 7.65054 15.7643 7.49766 15.7491C7.49585 14.8423 7.49403 13.9354 7.51268 13.0048C7.80045 12.9917 8.06771 13.0094 8.3351 13.0114C8.93787 13.016 9.54071 13.0129 10.1555 13.0129C10.1555 13.9435 10.1555 14.8493 10.1555 15.746C10.0381 15.7729 9.9393 15.7955 9.84046 15.8182C9.62153 15.8197 9.40259 15.8212 9.15244 15.8084C8.77805 15.8023 8.43487 15.8105 8.09169 15.8187ZM7.60825 14.615C7.6081 14.8689 7.61621 15.1231 7.60499 15.3764C7.59698 15.5574 7.65489 15.629 7.84582 15.6265C8.52508 15.6177 9.20461 15.6169 9.88383 15.6272C10.0808 15.6302 10.1261 15.5503 10.1202 15.3745C10.1007 14.7938 10.0898 14.2129 10.0776 13.6321C10.0741 13.4662 10.077 13.3002 10.077 13.113C9.27457 13.113 8.5071 13.1099 7.73982 13.1207C7.69495 13.1213 7.61505 13.2324 7.61347 13.2937C7.60254 13.719 7.60803 14.1446 7.60825 14.615Z" fill="#E2624B"/>
<path d="M13.2882 4.73248C12.8294 4.3386 12.3708 3.94443 11.9113 3.55136C11.8735 3.51898 11.8291 3.49416 11.7814 3.43558C11.6769 3.34137 11.5789 3.2774 11.4808 3.21344C11.4498 3.18606 11.4189 3.15868 11.3802 3.105C10.8378 2.37266 10.3712 2.6356 9.85661 3.21139C9.85661 3.21139 9.8546 3.20637 9.84134 3.20735C9.80679 3.23809 9.7855 3.26785 9.7642 3.29761C9.7642 3.29761 9.76151 3.2941 9.7477 3.29517C9.69811 3.34137 9.66232 3.3865 9.62653 3.43164C9.61544 3.44303 9.60435 3.45442 9.56663 3.47016C9.4789 3.47367 9.41781 3.47284 9.35742 3.45569C9.47516 3.32866 9.5879 3.21292 9.71029 3.10848C9.87613 2.96698 10.0644 2.84877 10.2152 2.69348C10.3666 2.53755 10.6163 2.42201 10.8271 2.49514C10.9702 2.54476 11.0983 2.63685 11.2341 2.70806C11.3598 2.77401 11.4967 2.82376 11.6107 2.90565C11.7406 2.99897 11.8343 3.15851 11.974 3.21807C12.1132 3.27738 12.1846 3.33713 12.1869 3.48319C12.1872 3.50293 12.2041 3.52241 12.2117 3.53851C12.2777 3.5595 12.3382 3.57874 12.4095 3.60139C12.3455 3.80974 12.5064 3.86449 12.6225 3.94995C12.6846 3.9957 12.7483 4.03985 12.8071 4.08968C13.0034 4.25611 13.1978 4.42478 13.393 4.60923C13.3931 4.65911 13.3932 4.69237 13.3757 4.72648C13.3349 4.72906 13.3115 4.73077 13.2882 4.73248Z" fill="#E2624B"/>
<path d="M11.3141 13.1308C11.3079 13.0941 11.3016 13.0575 11.2954 13.0208C11.3398 13.0192 11.3842 13.0161 11.4286 13.0161C12.1826 13.0152 12.9367 13.0189 13.6907 13.0108C13.8486 13.0091 13.8968 13.0574 13.8956 13.2138C13.8897 13.9977 13.8887 14.7817 13.8979 15.5655C13.9 15.7459 13.8237 15.7744 13.6703 15.7727C13.0805 15.7665 12.4907 15.7691 11.9008 15.7706C11.8199 15.7708 11.739 15.7834 11.6478 15.8031C11.5929 15.818 11.5482 15.8201 11.4871 15.8187C11.4421 15.7245 11.2229 15.819 11.3259 15.6257C12.0827 15.6204 12.8066 15.6187 13.5304 15.6256C13.6943 15.6271 13.7552 15.5693 13.7536 15.4038C13.7476 14.7694 13.7514 14.135 13.7515 13.5006C13.7515 13.3809 13.7515 13.2613 13.7515 13.1128C13.6949 13.1128 13.623 13.1123 13.5511 13.1128C12.8055 13.1187 12.0598 13.1248 11.3141 13.1308Z" fill="#E2624B"/>
<path d="M9.85883 15.8268C9.93881 15.7952 10.0376 15.7726 10.155 15.7457C10.155 14.849 10.155 13.9431 10.155 13.0125C9.54023 13.0125 8.93739 13.0157 8.33461 13.0111C8.06723 13.0091 7.79997 12.9914 7.51562 12.9846C7.54869 12.9583 7.59861 12.9025 7.64891 12.9022C8.46159 12.8964 9.27433 12.899 10.087 12.896C10.2318 12.8955 10.2821 12.9559 10.281 13.0991C10.2755 13.8893 10.2777 14.6796 10.2751 15.4698C10.2739 15.8496 10.2718 15.8496 9.85883 15.8268Z" fill="#E2624B"/>
<path d="M0.302314 8.62876C0.292408 8.6167 0.282502 8.60465 0.264648 8.57372C0.27501 8.51236 0.293321 8.46989 0.311631 8.42742C0.311631 8.42742 0.31394 8.41948 0.330311 8.41707C0.364498 8.38845 0.382316 8.36225 0.400133 8.33605C0.400133 8.33605 0.402975 8.32882 0.421111 8.32604C0.516012 8.25579 0.592777 8.18833 0.669542 8.12087C0.720721 8.07444 0.7719 8.02801 0.846418 7.96967C0.89177 7.93198 0.913785 7.9062 0.9358 7.88042C0.9358 7.88042 0.935744 7.87562 0.953136 7.87245C1.06121 7.79416 1.15189 7.71906 1.24256 7.64395C1.24256 7.64395 1.24093 7.642 1.25579 7.64319C1.29375 7.61919 1.31686 7.59401 1.33996 7.56882C1.41202 7.4996 1.48408 7.43038 1.58203 7.34906C1.71246 7.24972 1.817 7.16246 1.92154 7.07521C2.32822 6.73348 2.7349 6.39176 3.15583 6.05859C3.18487 6.09915 3.19965 6.13115 3.21399 6.17991C3.14021 6.27688 3.07111 6.36154 2.99259 6.4363C2.85881 6.56366 2.71963 6.68539 2.5815 6.8081C2.55109 6.83512 2.51663 6.85805 2.48218 6.87994C2.39577 6.93484 2.30797 6.98755 2.22131 7.04207C1.94527 7.21575 1.76247 7.49413 1.47875 7.66997C1.25406 7.80924 1.07351 8.02701 0.862127 8.19897C0.679198 8.34779 0.551998 8.56632 0.302314 8.62876Z" fill="#E2624B"/>
<path d="M9.35614 3.47217C9.41723 3.473 9.47831 3.47383 9.55411 3.47287C9.31828 3.69775 9.07555 3.93384 8.81556 4.14909C8.29709 4.57831 7.76914 4.99608 7.22803 5.40428C7.23831 5.33411 7.26567 5.27824 7.29369 5.22157C7.29436 5.22078 7.2958 5.2193 7.31113 5.21829C7.37534 5.17375 7.42421 5.13021 7.47319 5.08641C7.47328 5.08614 7.47383 5.08598 7.49027 5.08583C7.56392 5.03976 7.62114 4.99386 7.67836 4.94795C7.64001 4.93423 7.60167 4.92051 7.55088 4.89484C7.5457 4.82183 7.55295 4.76076 7.5602 4.69969C7.84005 4.73921 8.00613 4.58375 8.15325 4.37295C8.22226 4.27408 8.34447 4.21259 8.41473 4.11427C8.50119 3.9933 8.56289 3.88438 8.74264 3.86112C8.85966 3.84598 8.9603 3.71578 9.07174 3.64238C9.16391 3.58165 9.26115 3.52861 9.35614 3.47217Z" fill="#E2624B"/>
<path d="M8.13184 1.82253C8.49102 1.50492 8.84496 1.1811 9.21107 0.871676C9.49821 0.628993 9.78905 0.387541 10.0988 0.175611C10.4704 -0.0786238 10.9763 -0.0509115 11.2865 0.220503C11.235 0.238838 11.193 0.24159 11.1359 0.243769C11.1006 0.242928 11.0804 0.242661 11.0497 0.230517C10.9867 0.213177 10.9342 0.207715 10.861 0.200798C10.6591 0.200616 10.478 0.201889 10.2802 0.201594C9.90774 0.268808 9.73283 0.534985 9.5806 0.826018C9.58065 0.82617 9.58032 0.826033 9.56378 0.826384C9.51342 0.87105 9.47961 0.915365 9.43101 0.959723C9.39648 0.959551 9.37676 0.959336 9.34775 0.94863C9.27057 0.990306 9.20267 1.04247 9.13269 1.10892C9.11596 1.15861 9.10132 1.19401 9.07018 1.22966C8.93132 1.31894 8.80895 1.40797 8.68535 1.49801C8.68412 1.49902 8.68211 1.50148 8.66691 1.50328C8.6027 1.59227 8.5537 1.67947 8.50449 1.76714C8.50428 1.76762 8.50332 1.768 8.49019 1.76891C8.4563 1.78396 8.43554 1.79812 8.40089 1.81842C8.32107 1.86583 8.25515 1.9071 8.177 1.9357C8.15379 1.88954 8.14281 1.85603 8.13184 1.82253Z" fill="#E2624B"/>
<path d="M18.1913 8.71914C18.0902 8.69222 17.9892 8.66531 17.8706 8.63587C17.8295 8.61416 17.8059 8.59495 17.7915 8.55966C17.8174 8.5242 17.834 8.50482 17.8507 8.48544C17.8403 8.47843 17.83 8.47142 17.8196 8.46441C17.8035 8.49323 17.7874 8.52206 17.7713 8.55088C17.6958 8.48556 17.6203 8.42024 17.5325 8.33237C17.498 8.29334 17.4759 8.27687 17.4538 8.2604C17.4538 8.2604 17.4408 8.25838 17.4354 8.23811C17.3037 8.12753 17.1774 8.03722 17.0512 7.94691C17.0512 7.94691 17.038 7.94265 17.0331 7.92527C17.0045 7.89235 16.9807 7.8768 16.9569 7.86125C16.9128 7.81904 16.8686 7.77683 16.8127 7.71102C16.7765 7.67009 16.7522 7.65278 16.7278 7.63546C16.718 7.63035 16.7081 7.62524 16.6814 7.59704C16.5819 7.51933 16.4993 7.46471 16.4167 7.41009C16.3553 7.35901 16.2939 7.30794 16.2261 7.22888C16.1911 7.18289 16.1624 7.16488 16.1337 7.14687C16.12 7.13286 16.1064 7.11886 16.105 7.0848C16.1954 7.04779 16.2735 7.03083 16.3583 7.02734C16.4606 7.11431 16.556 7.1878 16.6514 7.26129C16.8165 7.42429 16.9612 7.62174 17.13 7.79574C17.2037 7.87166 17.3252 7.90325 17.4279 7.94825C17.5403 7.99748 17.6929 8.00764 17.763 8.09006C17.9265 8.28214 18.051 8.50735 18.1913 8.71914Z" fill="#E2624B"/>
<path d="M3.21448 6.16316C3.1997 6.13116 3.18492 6.09916 3.16992 6.05301C3.18713 6.01966 3.20455 6.00045 3.24787 5.97705C3.28307 5.95822 3.29237 5.94358 3.30168 5.92894C3.41816 5.8208 3.53465 5.71267 3.67727 5.59511C3.7651 5.5266 3.82678 5.46753 3.88846 5.40846C3.90412 5.38958 3.91977 5.37071 3.96274 5.3502C4.01466 5.31961 4.03925 5.29065 4.06384 5.26169C4.06566 5.24554 4.07366 5.23349 4.11388 5.22349C4.15951 5.19019 4.1791 5.15894 4.19869 5.12769C4.21124 5.11775 4.22379 5.10781 4.26358 5.09483C4.39777 4.99603 4.50473 4.90027 4.61169 4.80451C4.632 4.78494 4.6523 4.76536 4.69921 4.73656C4.8162 4.67878 4.90659 4.63023 4.99966 4.58447C5.00235 4.58727 5.00774 4.59286 5.00626 4.60795C4.94576 4.70234 4.88675 4.78164 4.81466 4.86806C4.76363 4.94963 4.7439 5.06497 4.68456 5.09141C4.43434 5.20291 4.18821 5.3073 4.07494 5.58512C4.06844 5.60107 4.03699 5.60584 4.01876 5.6182C3.79526 5.76969 3.57206 5.92163 3.33452 6.07518C3.30009 6.10527 3.27992 6.13363 3.24844 6.1623C3.22958 6.1628 3.22203 6.16298 3.21448 6.16316Z" fill="#E2624B"/>
<path d="M11.4625 0.316406C11.9058 0.677491 12.3522 1.03495 12.7914 1.40096C13.0744 1.6368 13.347 1.88519 13.6224 2.14749C13.6206 2.16702 13.6124 2.17572 13.5953 2.17401C13.5324 2.17155 13.4866 2.1708 13.4389 2.15883C13.4353 2.14019 13.4337 2.13278 13.4293 2.11285C13.3807 2.0323 13.3497 1.93667 13.2858 1.90219C13.1674 1.83836 13.0297 1.81032 12.8998 1.76743C12.8995 1.76749 12.8997 1.76691 12.8996 1.74918C12.9147 1.59043 12.8241 1.58127 12.7204 1.58807C12.7202 1.58812 12.7203 1.5876 12.7199 1.57054C12.6603 1.52004 12.6011 1.4866 12.5407 1.43961C12.5254 1.40398 12.5112 1.3819 12.4965 1.34325C12.4651 1.14135 12.3223 1.14341 12.1826 1.13969C12.1822 1.13964 12.182 1.13888 12.1796 1.12396C12.075 1.01442 11.9729 0.919787 11.8699 0.813958C11.8685 0.795303 11.8678 0.78785 11.8668 0.763556C11.8108 0.698457 11.7617 0.637413 11.698 0.604664C11.5745 0.541129 11.4349 0.500053 11.4625 0.316406Z" fill="#E2624B"/>
<path d="M13.3931 4.72549C13.393 4.69223 13.3929 4.65898 13.4084 4.60745C13.4794 4.5659 13.5349 4.54262 13.5399 4.54053C13.6654 4.71738 13.7474 4.89788 13.8851 5.00957C14.0378 5.13339 14.2415 5.19435 14.4392 5.29055C14.4505 5.45063 14.6166 5.49887 14.7409 5.5602C14.758 5.6656 14.7728 5.75722 14.7848 5.86143C14.7796 5.88234 14.7774 5.89065 14.7609 5.89941C14.7187 5.89523 14.6907 5.8906 14.6627 5.88598C14.6627 5.88598 14.6542 5.88458 14.6528 5.86585C14.553 5.78473 14.4546 5.72233 14.3562 5.65993C14.3562 5.65993 14.3452 5.65794 14.3408 5.63864C14.2775 5.57545 14.2186 5.53156 14.1596 5.48767C14.1079 5.43807 14.0562 5.38847 13.9902 5.31472C13.8696 5.18333 13.7633 5.07608 13.6575 4.95382C13.628 4.92972 13.598 4.92062 13.5542 4.90414C13.5011 4.88827 13.4619 4.8798 13.4226 4.87133C13.4113 4.86208 13.4 4.85283 13.3968 4.82611C13.4009 4.78092 13.397 4.75321 13.3931 4.72549Z" fill="#E2624B"/>
<path d="M6.03812 3.60538C6.03925 3.58947 6.04614 3.57669 6.08467 3.56373C6.12998 3.52857 6.14944 3.49669 6.16889 3.46481C6.19231 3.44188 6.21574 3.41896 6.26455 3.38776C6.4153 3.27563 6.54066 3.17177 6.66602 3.06791C6.66602 3.06791 6.66627 3.06807 6.68218 3.06888C6.7329 3.02587 6.76772 2.98205 6.80253 2.93823C6.83292 2.9063 6.86331 2.87437 6.92295 2.8417C6.98684 2.83786 7.02148 2.83475 7.07105 2.83497C7.09603 2.84017 7.10607 2.84203 7.11089 2.85544C7.09371 2.88927 7.08174 2.91153 7.05553 2.93576C7.02082 2.96614 7.00035 2.99455 6.98002 3.0231C6.98015 3.02323 6.97988 3.02295 6.96668 3.02411C6.93228 3.03922 6.9111 3.05316 6.87647 3.07423C6.69261 3.24101 6.52218 3.40066 6.33636 3.56212C6.19681 3.69735 6.07264 3.83076 5.94862 3.96451C5.94877 3.96484 5.94811 3.9645 5.93241 3.96483C5.88261 3.99487 5.84851 4.02459 5.8068 4.06514C5.77442 4.08355 5.74966 4.09112 5.7158 4.08875C5.68243 4.1153 5.65814 4.15176 5.61862 4.19009C5.50911 4.28069 5.41483 4.36943 5.30671 4.46544C5.19768 4.51274 5.10248 4.55276 5.00729 4.59278C5.00729 4.59278 5.0019 4.58719 5.00384 4.57049C5.09905 4.45533 5.19232 4.35686 5.28559 4.2584C5.28559 4.2584 5.28771 4.24685 5.30452 4.24336C5.33834 4.21652 5.35534 4.19318 5.37234 4.16983C5.41896 4.12036 5.46559 4.07089 5.54012 4.01353C5.72472 3.87223 5.88142 3.7388 6.03812 3.60538Z" fill="#E2624B"/>
<path d="M7.11641 2.84385C7.10637 2.84199 7.09633 2.84013 7.07715 2.82136C7.14361 2.71343 7.21922 2.62242 7.29483 2.53142C7.30892 2.5203 7.32301 2.50919 7.3619 2.49295C7.40207 2.46237 7.41742 2.43692 7.43277 2.41146C7.44617 2.39839 7.45956 2.38531 7.4994 2.36334C7.70471 2.19924 7.88359 2.04403 8.06246 1.88882C8.07716 1.87312 8.09186 1.85741 8.11947 1.83203C8.14335 1.85585 8.15433 1.88936 8.17752 1.95242C8.06695 2.13455 7.95043 2.29288 7.81809 2.43666C7.76972 2.48921 7.64702 2.48983 7.62145 2.544C7.51712 2.76495 7.33145 2.82328 7.11641 2.84385Z" fill="#E2624B"/>
<path d="M4.5708 7.63799C4.57441 7.61065 4.58773 7.57238 4.60633 7.50339C4.65638 7.45382 4.69969 7.42967 4.74614 7.41706C4.94761 7.36235 5.12622 7.16256 5.14157 6.96975C5.14164 6.96941 5.14231 6.96922 5.15659 6.96745C5.19128 6.93723 5.2117 6.90878 5.24294 6.88011C5.25377 6.87989 5.27542 6.87936 5.29224 6.87948C5.50722 6.73819 5.7039 6.59467 5.90404 6.45615C6.03342 6.36661 6.16787 6.2844 6.30387 6.20312C6.30771 6.20735 6.31537 6.2158 6.31537 6.2158C5.85983 6.59978 5.40592 6.98573 4.94761 7.36638C4.83248 7.46199 4.70325 7.54063 4.5708 7.63799Z" fill="#E2624B"/>
<path d="M14.7391 3.06689C15.1895 3.4541 15.6399 3.8413 16.1005 4.23905C16.1107 4.24961 16.1141 4.24778 16.0983 4.24327C15.9637 4.20748 15.8449 4.17619 15.7255 4.14436C15.7249 4.14381 15.7238 4.14254 15.7238 4.12545C15.7182 3.95417 15.6067 3.96417 15.5008 3.96488C15.5003 3.96478 15.5001 3.96389 15.4988 3.94928C15.4778 3.88171 15.4657 3.82406 15.4368 3.77673C15.3701 3.6678 15.3172 3.52563 15.1268 3.59903C15.0784 3.58217 15.0429 3.57102 15.0057 3.54451C14.9474 3.4654 14.8803 3.408 14.8373 3.33618C14.7897 3.25658 14.7641 3.1638 14.7314 3.07429C14.734 3.07183 14.7391 3.06689 14.7391 3.06689Z" fill="#E2624B"/>
<path d="M16.3519 7.01407C16.2738 7.03103 16.1957 7.04799 16.0981 7.07218C16.0787 7.0794 16.0621 7.08326 16.0621 7.08326C16.0621 7.08326 16.0467 7.07616 16.0415 7.05344C15.9339 6.96488 15.8316 6.89904 15.7293 6.8332C15.6791 6.78626 15.629 6.73933 15.5858 6.67677C15.5859 6.61679 15.5789 6.57244 15.5719 6.52809C15.5331 6.53907 15.4943 6.55006 15.4556 6.56104C15.4322 6.54608 15.4088 6.53112 15.3805 6.49257C15.3713 6.45646 15.3658 6.44442 15.3728 6.43151C15.4082 6.41634 15.4299 6.40253 15.4662 6.38224C15.5798 6.36996 15.6789 6.36418 15.778 6.3584C15.7685 6.44397 15.7591 6.52953 15.7481 6.6292C15.7674 6.63834 15.8068 6.64653 15.8312 6.67016C15.9647 6.79928 16.0871 6.95159 16.307 6.84939C16.322 6.90428 16.3369 6.95918 16.3519 7.01407Z" fill="#E2624B"/>
<path d="M13.6246 2.16309C13.9952 2.45243 14.3616 2.74616 14.7336 3.05351C14.7391 3.06713 14.734 3.07207 14.7155 3.07138C14.5173 2.97995 14.3375 2.88922 14.1521 2.78687C14.1331 2.7531 14.1198 2.73094 14.1062 2.6929C14.0284 2.59637 13.9515 2.51496 13.873 2.4353C13.7869 2.34808 13.6993 2.26247 13.6123 2.17616C13.6123 2.17616 13.6206 2.16747 13.6246 2.16309Z" fill="#E2624B"/>
<path d="M1.28608 25.8272C1.35714 25.8509 1.42752 25.8924 1.49938 25.8951C1.73288 25.904 1.96693 25.8987 2.22198 25.9056C2.20313 25.9415 2.16227 25.9971 2.12313 25.9959C1.75747 25.9849 1.3921 25.9641 1.01904 25.933C1.059 25.8974 1.10657 25.8747 1.16284 25.8365C1.17154 25.8209 1.17228 25.8195 1.18062 25.824C1.18896 25.8286 1.20793 25.8292 1.20793 25.8292C1.20793 25.8292 1.22585 25.8229 1.23539 25.8286C1.24494 25.8344 1.26631 25.8353 1.26631 25.8353L1.28608 25.8272Z" fill="#E2624B"/>
<path d="M9.87207 3.20659C10.3714 2.63567 10.838 2.37273 11.3741 3.09414C11.2729 3.02634 11.1736 2.93882 11.0672 2.86082C10.7938 2.6602 10.5754 2.66907 10.307 2.88109C10.1688 2.99021 10.0273 3.095 9.87207 3.20659Z" fill="#E2624B"/>
<path d="M16.1089 4.25075C16.3816 4.4742 16.656 4.69678 16.9317 4.93639C16.933 4.95343 16.9271 4.95879 16.9124 4.95441C16.7761 4.89201 16.6545 4.83398 16.5215 4.77395C16.5026 4.77083 16.495 4.76972 16.4845 4.75373C16.359 4.57525 16.2365 4.41165 16.114 4.24805C16.114 4.24805 16.1106 4.24988 16.1089 4.25075Z" fill="#E2624B"/>
<path d="M7.12416 5.51709C6.86442 5.74688 6.60469 5.97666 6.33024 6.21105C6.31553 6.21566 6.30786 6.20721 6.30924 6.18885C6.44114 6.00054 6.55758 5.82074 6.76711 5.72569C6.83793 5.69357 6.88171 5.60187 6.948 5.52888C6.96568 5.49552 6.97322 5.47067 6.99824 5.44629C7.05186 5.4702 7.08801 5.49365 7.12416 5.51709Z" fill="#E2624B"/>
<path d="M11.4597 0.30712C11.4346 0.500019 11.5742 0.541095 11.6977 0.604631C11.7614 0.637379 11.8105 0.698423 11.849 0.761398C11.7249 0.741277 11.5942 0.733684 11.5164 0.66562C11.3778 0.544357 11.2713 0.386528 11.1514 0.243992C11.1934 0.24124 11.2354 0.238488 11.298 0.23131C11.3306 0.21678 11.3436 0.215064 11.3697 0.239625C11.4006 0.269663 11.4195 0.281814 11.4384 0.293964C11.4384 0.293964 11.4571 0.297868 11.4597 0.30712Z" fill="#E2624B"/>
<path d="M16.9361 4.95068C17.0997 5.07325 17.2602 5.19851 17.4271 5.33713C17.4334 5.35048 17.4268 5.35681 17.4075 5.35708C17.2524 5.31182 17.1165 5.2663 16.9693 5.2129C16.9352 5.16496 16.9124 5.1249 16.8955 5.07264C16.91 5.02655 16.9187 4.99264 16.9273 4.95873C16.9273 4.95873 16.9332 4.95338 16.9361 4.95068Z" fill="#E2624B"/>
<path d="M8.11133 15.827C8.43452 15.8099 8.7777 15.8017 9.13203 15.8057C8.80589 15.8238 8.4686 15.8299 8.11133 15.827Z" fill="#E2624B"/>
<path d="M0.00361206 24.9194C0.0916376 25.1211 0.169632 25.3365 0.24716 25.5692C0.0616063 25.4077 -0.018611 25.1883 0.00361206 24.9194Z" fill="#E2624B"/>
<path d="M0.295927 8.4248C0.292541 8.46979 0.27423 8.51227 0.253135 8.56857C0.18028 8.75561 0.11021 8.92882 0.0267911 9.11217C-0.0392111 8.83475 0.107758 8.6235 0.295927 8.4248Z" fill="#E2624B"/>
<path d="M5.27043 4.25879C5.1923 4.35683 5.09903 4.45529 5.00113 4.56766C4.90612 4.63011 4.81573 4.67866 4.70947 4.72726C4.88083 4.57128 5.06806 4.41525 5.27043 4.25879Z" fill="#E2624B"/>
<path d="M13.6574 4.96882C13.7637 5.07607 13.87 5.18332 13.9799 5.30356C13.8014 5.17697 13.6194 5.03739 13.4302 4.88456C13.4622 4.87979 13.5015 4.88827 13.5628 4.91479C13.6091 4.94484 13.6332 4.95683 13.6574 4.96882Z" fill="#E2624B"/>
<path d="M8.04802 1.88721C7.88338 2.04428 7.7045 2.19949 7.51074 2.35556C7.67517 2.19939 7.85448 2.04237 8.04802 1.88721Z" fill="#E2624B"/>
<path d="M6.02297 3.60889C5.8814 3.73865 5.7247 3.87208 5.55176 4.00457C5.69296 3.87327 5.85041 3.74291 6.02297 3.60889Z" fill="#E2624B"/>
<path d="M17.4377 19.8811C17.3927 19.8548 17.3478 19.8284 17.2949 19.7883C17.4417 19.7226 17.5965 19.6707 17.7685 19.6147C17.6819 19.6893 17.578 19.768 17.4634 19.8632C17.4527 19.8797 17.4377 19.8811 17.4377 19.8811Z" fill="#E2624B"/>
<path d="M0.338867 25.6919C0.471286 25.7401 0.607069 25.8032 0.745346 25.882C0.612638 25.8341 0.477436 25.7705 0.338867 25.6919Z" fill="#E2624B"/>
<path d="M7.27958 2.5332C7.21926 2.62222 7.14365 2.71322 7.06225 2.81781C7.02182 2.83451 6.98718 2.83762 6.93555 2.83629C7.0338 2.73296 7.14905 2.63408 7.27958 2.5332Z" fill="#E2624B"/>
<path d="M7.49219 15.7658C7.65016 15.7638 7.80303 15.7789 7.96659 15.8061C7.81389 15.8064 7.65049 15.7947 7.49219 15.7658Z" fill="#E2624B"/>
<path d="M6.65142 3.07129C6.54123 3.17163 6.41587 3.27549 6.27441 3.37942C6.38429 3.27793 6.51026 3.17637 6.65142 3.07129Z" fill="#E2624B"/>
<path d="M4.59741 4.80176C4.50457 4.90053 4.39761 4.99629 4.27539 5.09257C4.36785 4.99497 4.47556 4.89686 4.59741 4.80176Z" fill="#E2624B"/>
<path d="M2.69482 9.26002C2.79196 9.15622 2.90485 9.05224 3.03327 8.95361C2.93607 9.05926 2.82333 9.15955 2.69482 9.26002Z" fill="#E2624B"/>
<path d="M7.13755 5.51439C7.08786 5.49364 7.05172 5.47019 6.99797 5.43487C6.98041 5.41539 6.98044 5.40779 6.99473 5.39809C7.02929 5.36743 7.04961 5.33887 7.07757 5.29615C7.15451 5.26206 7.2238 5.24211 7.2931 5.22217C7.26573 5.27804 7.23837 5.33391 7.21165 5.40593C7.19189 5.45195 7.17148 5.48182 7.13755 5.51439Z" fill="#E2624B"/>
<path d="M17.0513 7.96094C17.1774 8.03709 17.3036 8.1274 17.4336 8.23168C17.3086 8.15546 17.18 8.06528 17.0513 7.96094Z" fill="#E2624B"/>
<path d="M15.3587 6.43272C15.3653 6.44425 15.3707 6.45629 15.3745 6.47875C15.2522 6.40501 15.1305 6.32136 15.0186 6.21831C15.0366 6.19728 15.0449 6.19564 15.0655 6.2037C15.1566 6.27164 15.2356 6.32988 15.3188 6.39819C15.3323 6.42035 15.3441 6.4285 15.3587 6.43272Z" fill="#E2624B"/>
<path d="M1.90649 7.07227C1.81728 7.16271 1.71274 7.24996 1.59326 7.33842C1.6826 7.24944 1.78688 7.15926 1.90649 7.07227Z" fill="#E2624B"/>
<path d="M2.31396 9.76024C2.3683 9.64084 2.4352 9.51374 2.51769 9.38574C2.46436 9.50741 2.39545 9.62997 2.31396 9.76024Z" fill="#E2624B"/>
<path d="M18.0705 11.1846C18.0638 11.2885 18.0412 11.3969 18.0054 11.5144C18.013 11.412 18.0338 11.3005 18.0705 11.1846Z" fill="#E2624B"/>
<path d="M15.731 6.84766C15.8314 6.89889 15.9337 6.96474 16.0365 7.04629C15.9356 6.99542 15.8342 6.92884 15.731 6.84766Z" fill="#E2624B"/>
<path d="M4.0835 8.09255C4.15808 8.01538 4.24853 7.93869 4.35451 7.86084C4.27982 7.93746 4.18959 8.01524 4.0835 8.09255Z" fill="#E2624B"/>
<path d="M14.3564 5.67432C14.4549 5.72229 14.5533 5.78468 14.6541 5.8616C14.5565 5.81367 14.4564 5.75121 14.3564 5.67432Z" fill="#E2624B"/>
<path d="M3.40137 8.66416C3.46442 8.58606 3.54294 8.51163 3.63694 8.43945C3.5739 8.51708 3.49536 8.59245 3.40137 8.66416Z" fill="#E2624B"/>
<path d="M11.4893 3.22656C11.5788 3.27747 11.6768 3.34144 11.7742 3.42222C11.6816 3.37257 11.5897 3.30609 11.4893 3.22656Z" fill="#E2624B"/>
<path d="M1.22691 7.64404C1.15203 7.71866 1.06135 7.79377 0.955566 7.87131C1.03068 7.79735 1.1209 7.72094 1.22691 7.64404Z" fill="#E2624B"/>
<path d="M0.655102 8.11621C0.592854 8.18841 0.516089 8.25588 0.424805 8.32471C0.487053 8.25454 0.563819 8.18301 0.655102 8.11621Z" fill="#E2624B"/>
<path d="M16.4189 7.42383C16.4988 7.46459 16.5814 7.5192 16.668 7.58633C16.5886 7.54513 16.5051 7.49141 16.4189 7.42383Z" fill="#E2624B"/>
<path d="M18.288 10.8418C18.2462 10.9254 18.1881 11.0045 18.1162 11.0891C18.1588 11.0088 18.2153 10.923 18.288 10.8418Z" fill="#E2624B"/>
<path d="M15.4609 6.57314C15.4943 6.5498 15.5331 6.53882 15.5719 6.52783C15.5789 6.57219 15.5859 6.61654 15.5788 6.66336C15.5319 6.63905 15.4991 6.61227 15.4609 6.57314Z" fill="#E2624B"/>
<path d="M18.2476 18.0186C18.3184 17.9982 18.4002 17.9897 18.4926 17.9936C18.4217 18.0141 18.3401 18.0224 18.2476 18.0186Z" fill="#E2624B"/>
<path d="M14.6626 5.90093C14.691 5.89102 14.719 5.89565 14.763 5.89985C14.779 5.89941 14.7821 5.89778 14.7853 5.91127C14.811 5.9646 14.8334 6.00444 14.8513 6.04873C14.8468 6.05318 14.8377 6.062 14.8377 6.062C14.7792 6.01316 14.7207 5.96431 14.6626 5.90093Z" fill="#E2624B"/>
<path d="M3.67139 8.44224C3.71659 8.38049 3.77734 8.3217 3.85266 8.26074C3.80714 8.32078 3.74704 8.38299 3.67139 8.44224Z" fill="#E2624B"/>
<path d="M3.87558 5.41504C3.82715 5.46748 3.76547 5.52655 3.68896 5.58439C3.73687 5.52933 3.7996 5.4755 3.87558 5.41504Z" fill="#E2624B"/>
<path d="M10.4902 23.0327C10.5433 23.07 10.5989 23.1217 10.6556 23.1886C10.602 23.1516 10.5474 23.0993 10.4902 23.0327Z" fill="#E2624B"/>
<path d="M14.1616 5.50244C14.2188 5.53191 14.2777 5.5758 14.34 5.6335C14.2834 5.60382 14.2234 5.56034 14.1616 5.50244Z" fill="#E2624B"/>
<path d="M10.2231 22.9979C10.2641 22.9832 10.3227 22.9762 10.3867 22.981C10.3417 22.9971 10.2912 23.0013 10.2231 22.9979Z" fill="#E2624B"/>
<path d="M6.7889 2.93994C6.76824 2.98217 6.73343 3.02599 6.68262 3.06887C6.70267 3.0258 6.73871 2.98367 6.7889 2.93994Z" fill="#E2624B"/>
<path d="M9.64062 3.4294C9.6619 3.38656 9.69769 3.34142 9.74939 3.2959C9.72858 3.33938 9.69186 3.38324 9.64062 3.4294Z" fill="#E2624B"/>
<path d="M17.9883 17.9434C18.0265 17.9465 18.0573 17.9642 18.0934 17.9945C18.0594 17.9906 18.0202 17.9743 17.9883 17.9434Z" fill="#E2624B"/>
<path d="M13.3748 4.72656C13.3963 4.75342 13.4002 4.78114 13.3931 4.81538C13.3532 4.80084 13.3245 4.77976 13.2915 4.74563C13.3106 4.73085 13.334 4.72914 13.3748 4.72656Z" fill="#E2624B"/>
<path d="M14.9613 6.16474C14.9241 6.13924 14.8868 6.11374 14.8436 6.07492C14.8377 6.0616 14.8468 6.05278 14.8614 6.05653C14.9042 6.08031 14.9324 6.10033 14.9624 6.13142C14.9633 6.14991 14.9623 6.15732 14.9613 6.16474Z" fill="#E2624B"/>
<path d="M14.9659 6.17417C14.9616 6.15763 14.9626 6.15022 14.9701 6.12158C15.0021 6.13163 15.0276 6.16289 15.0531 6.19416C15.0448 6.1958 15.0365 6.19744 15.0162 6.2036C14.9902 6.20397 14.9791 6.19569 14.9659 6.17417Z" fill="#E2624B"/>
<path d="M11.4408 0.285372C11.4201 0.282822 11.4009 0.270494 11.377 0.247559C11.3956 0.249833 11.419 0.262713 11.4408 0.285372Z" fill="#E2624B"/>
<path d="M16.1343 7.16016C16.1625 7.16498 16.1912 7.18299 16.221 7.21458C16.193 7.20988 16.1639 7.19161 16.1343 7.16016Z" fill="#E2624B"/>
<path d="M4.05044 5.26465C4.03936 5.2907 4.01477 5.31966 3.97412 5.34536C3.98436 5.31725 4.01065 5.2924 4.05044 5.26465Z" fill="#E2624B"/>
<path d="M4.1856 5.13037C4.17941 5.15924 4.15982 5.19049 4.125 5.22088C4.13058 5.19094 4.15139 5.16185 4.1856 5.13037Z" fill="#E2624B"/>
<path d="M3.98193 8.16712C3.99139 8.14139 4.01509 8.11529 4.05326 8.09082C4.04388 8.11722 4.02003 8.14199 3.98193 8.16712Z" fill="#E2624B"/>
<path d="M3.89014 8.25199C3.89663 8.22506 3.91763 8.20001 3.95149 8.17383C3.94444 8.19975 3.92454 8.22681 3.89014 8.25199Z" fill="#E2624B"/>
<path d="M17.4526 8.27295C17.4761 8.27727 17.4982 8.29374 17.5221 8.32092C17.4997 8.31612 17.4755 8.30061 17.4526 8.27295Z" fill="#E2624B"/>
<path d="M0.385854 8.33398C0.382255 8.36237 0.364436 8.38857 0.333984 8.41542C0.338112 8.38798 0.354874 8.35989 0.385854 8.33398Z" fill="#E2624B"/>
<path d="M16.9551 7.87354C16.98 7.87685 17.0038 7.8924 17.0303 7.91875C17.0066 7.91496 16.9803 7.90036 16.9551 7.87354Z" fill="#E2624B"/>
<path d="M3.09473 8.94435C3.10115 8.91266 3.12187 8.88215 3.15756 8.85352C3.15136 8.88544 3.13019 8.91549 3.09473 8.94435Z" fill="#E2624B"/>
<path d="M0.921135 7.88086C0.913205 7.9063 0.891191 7.93208 0.855469 7.95846C0.863524 7.9331 0.885287 7.90715 0.921135 7.88086Z" fill="#E2624B"/>
<path d="M17.9085 19.4844C17.9014 19.5107 17.8811 19.539 17.8467 19.5686C17.8535 19.542 17.8744 19.5142 17.9085 19.4844Z" fill="#E2624B"/>
<path d="M16.7275 7.64844C16.7521 7.65298 16.7764 7.67029 16.803 7.69918C16.7792 7.69424 16.7532 7.67772 16.7275 7.64844Z" fill="#E2624B"/>
<path d="M1.32596 7.56982C1.31688 7.59412 1.29377 7.6193 1.25684 7.64403C1.26598 7.6193 1.28896 7.59501 1.32596 7.56982Z" fill="#E2624B"/>
<path d="M5.35979 4.16797C5.35534 4.19326 5.33834 4.21661 5.31006 4.24149C5.31493 4.21735 5.33109 4.19169 5.35979 4.16797Z" fill="#E2624B"/>
<path d="M6.1555 3.46777C6.14951 3.4967 6.13006 3.52858 6.09521 3.55983C6.10056 3.52972 6.1213 3.50022 6.1555 3.46777Z" fill="#E2624B"/>
<path d="M9.77588 3.29226C9.78502 3.2681 9.80631 3.23834 9.84318 3.20898C9.83518 3.23515 9.81161 3.2609 9.77588 3.29226Z" fill="#E2624B"/>
<path d="M7.42045 2.41064C7.41734 2.43698 7.40199 2.46243 7.375 2.48951C7.37831 2.46401 7.39325 2.43689 7.42045 2.41064Z" fill="#E2624B"/>
<path d="M3.29566 5.93994C3.29299 5.94392 3.28347 5.9589 3.26074 5.97785C3.2613 5.97152 3.27505 5.96123 3.29566 5.93994Z" fill="#E2624B"/>
<path d="M17.4195 19.8843C17.438 19.8815 17.4531 19.88 17.4604 19.8785C17.7775 19.8233 18.0558 19.7058 18.2366 19.4368C18.3206 19.3118 18.4105 19.2465 18.5636 19.2539C18.7498 19.2629 18.9389 19.272 19.1226 19.2484C19.209 19.2374 19.3378 19.1652 19.3581 19.0949C19.4648 18.7262 19.5732 18.3401 19.3476 17.9833C19.2821 17.8797 19.1167 17.8141 18.985 17.7843C18.8359 17.7506 18.6731 17.7804 18.5164 17.7757C18.3341 17.7701 18.2284 17.6931 18.2325 17.4883C18.2405 17.0927 18.2344 16.6969 18.2352 16.3011C18.2359 15.9902 18.4238 15.8671 18.7236 15.9796C18.9935 16.0809 19.3002 15.9788 19.3975 15.7302C19.4427 15.6144 19.3952 15.4594 19.4477 15.35C19.5442 15.1491 19.4337 14.9688 19.4312 14.7803C19.4303 14.7125 19.3366 14.6064 19.2659 14.5865C19.0814 14.5347 18.8813 14.4792 18.6963 14.5007C18.3245 14.544 18.2404 14.489 18.2337 14.1109C18.2233 13.5227 18.1916 12.9346 18.196 12.3467C18.1986 12.0068 18.2421 11.6656 18.2895 11.3281C18.3314 11.0298 18.5206 10.9151 18.8193 10.9657C18.8962 10.9787 18.9764 10.972 19.09 10.9668C19.2195 10.945 19.3142 10.9191 19.4089 10.9184C19.8695 10.9151 20.3302 10.9185 20.7908 10.9195C20.8581 10.9691 20.9253 11.0188 21.0034 11.1008C21.0143 15.5401 21.0154 19.947 21.0123 24.3538C21.012 24.6881 20.9817 25.0222 20.9557 25.3639C20.9392 25.3946 20.9325 25.4178 20.9257 25.441C20.9257 25.441 20.9041 25.4431 20.8906 25.4381C20.8736 25.431 20.8701 25.4289 20.8666 25.4268C20.8717 25.4329 20.8767 25.439 20.8817 25.4452C20.8202 25.6759 20.6181 25.7045 20.4328 25.7564C20.4119 25.7623 20.3882 25.7585 20.3658 25.759C19.6874 25.7732 19.0091 25.7955 18.3306 25.7987C17.8948 25.8007 17.4589 25.7648 17.023 25.764C16.632 25.7632 16.241 25.7926 15.8499 25.7979C15.6231 25.801 15.3922 25.8055 15.1696 25.7694C14.7338 25.6988 14.713 25.6879 14.6999 25.2479C14.6797 24.5685 14.676 23.8871 14.7081 23.2086C14.715 23.0636 14.6373 23.0238 14.5864 22.9646C14.17 22.4807 13.6322 22.6771 13.4096 23.1525C13.3347 23.3125 13.3114 23.508 13.308 23.6881C13.2962 24.3082 13.298 24.9287 13.3073 25.5488C13.3099 25.7199 13.2523 25.762 13.0884 25.7631C12.5847 25.7662 12.0813 25.7933 11.5777 25.7988C11.3864 25.8008 11.1948 25.7694 10.9578 25.7493C10.9578 25.2705 10.9596 24.8054 10.9573 24.3403C10.9553 23.9445 11.0213 23.5361 10.8359 23.165C10.5978 22.6884 10.1153 22.5799 9.76458 23.0582C9.76334 23.0744 9.76317 23.0879 9.75097 23.1067C9.73141 23.1578 9.72404 23.19 9.71668 23.2223C9.71668 23.2223 9.71755 23.2245 9.70103 23.2344C9.65018 23.3444 9.58746 23.444 9.58606 23.5445C9.57619 24.2532 9.57891 24.962 9.57762 25.6708C9.02588 25.8322 8.4649 25.8218 7.90056 25.7651C7.72307 25.7473 7.54428 25.7414 7.36596 25.7329C7.13087 25.7216 7.15244 25.5555 7.15724 25.3958C7.17333 24.8612 7.18544 24.3265 7.20381 23.792C7.21552 23.4515 7.13234 23.1537 6.87967 22.9065C6.7239 22.7541 6.55055 22.6199 6.33806 22.6768C6.10426 22.7395 5.88767 22.8673 5.81276 23.1357C5.78896 23.2209 5.75627 23.3036 5.72691 23.426C5.72617 24.1166 5.7245 24.7687 5.72817 25.4208C5.72865 25.5054 5.75674 25.5899 5.77203 25.6744C5.76132 25.7062 5.7506 25.7379 5.71252 25.7845C5.36876 25.7907 5.0524 25.7794 4.73595 25.7743C4.36134 25.7683 4.3613 25.7707 4.37606 25.4298C4.3626 25.3637 4.34747 25.3142 4.3327 25.246C4.33282 25.1649 4.33257 25.1025 4.34456 25.0299C4.34878 24.9519 4.34076 24.8841 4.33317 24.7959C4.31984 23.4894 4.30609 22.2032 4.30898 20.9124C4.34102 20.8045 4.3564 20.7013 4.37319 20.5784C4.37678 20.4532 4.37897 20.3476 4.39756 20.2403C4.56705 20.1497 4.72015 20.0608 4.87324 19.972C8.89645 19.9725 12.9197 19.974 16.9429 19.9699C17.0956 19.9697 17.2483 19.9159 17.4195 19.8843Z" fill="#E2624B"/>
<path d="M20.9658 25.3563C20.9821 25.0221 21.0124 24.688 21.0127 24.3537C21.0158 19.9469 21.0147 15.54 21.0145 11.1116C21.0408 11.0918 21.0671 11.0935 21.1132 11.0967C21.1337 11.986 21.1334 12.8738 21.1352 13.7617C21.139 15.6647 21.1448 17.5678 21.148 19.4709C21.1502 20.8287 21.153 22.1865 21.148 23.5443C21.1458 24.1335 21.1246 24.7226 21.0899 25.3327C21.0338 25.3546 20.9998 25.3554 20.9658 25.3563Z" fill="#E2624B"/>
<path d="M20.8058 10.9181C20.3304 10.9184 19.8697 10.915 19.4091 10.9183C19.3143 10.919 19.2197 10.9448 19.106 10.9598C19.1139 10.931 19.1406 10.8763 19.1679 10.876C19.7295 10.8701 20.2911 10.8704 20.8527 10.8696C20.86 10.8696 20.8673 10.8722 20.8745 10.8735C20.8566 10.8879 20.8386 10.9024 20.8058 10.9181Z" fill="#E2624B"/>
<path d="M7.29405 5.22123C7.22409 5.24197 7.1548 5.26191 7.06353 5.29794C7.02129 5.3427 7.00103 5.37138 6.98077 5.40005C6.98074 5.40765 6.9807 5.41524 6.98078 5.43425C6.97336 5.47052 6.96583 5.49537 6.93143 5.52924C6.70643 5.63226 6.5083 5.72624 6.28868 5.83042C6.29164 5.94389 6.23941 6.03493 6.08467 6.1404C5.78584 6.34409 5.41013 6.48781 5.27572 6.87907C5.27572 6.87907 5.25407 6.8796 5.23672 6.86727C5.19003 6.83963 5.16071 6.82433 5.13138 6.80903C5.13513 6.86233 5.13887 6.91563 5.14262 6.96893C5.14262 6.96893 5.14195 6.96912 5.12416 6.96929C5.04454 7.00761 4.97932 7.04128 4.92161 7.08489C4.8187 7.16268 4.73086 7.2879 4.61726 7.31681C4.48864 7.34953 4.46013 7.39829 4.47108 7.50849C4.32124 7.64812 4.1769 7.79426 4.02055 7.92618C3.495 8.36961 2.96854 8.81211 2.43559 9.24658C2.16251 9.4692 2.13653 9.75522 2.1651 10.089C2.12349 10.1416 2.07862 10.1742 2.07783 10.2078C2.07488 10.3339 2.09262 10.4604 2.0914 10.5867C2.07823 11.9525 2.05943 13.3182 2.05072 14.684C2.04859 15.0184 2.08556 15.3529 2.09042 15.6875C2.09763 16.1846 2.0952 16.6818 2.09171 17.1789C2.07831 19.0902 2.05999 21.0015 2.05058 22.9128C2.04867 23.2995 2.08311 23.6863 2.09076 24.0732C2.09863 24.4714 2.09424 24.8699 2.09521 25.2682C2.09789 25.3039 2.10058 25.3396 2.08496 25.3938C2.02548 25.5755 1.97879 25.7345 1.78404 25.7802C1.78119 25.7809 1.78115 25.7936 1.7798 25.8006C1.74567 25.8009 1.71154 25.8011 1.66045 25.7855C1.62785 25.7415 1.6122 25.7134 1.59654 25.6853C1.55306 25.7237 1.50957 25.7621 1.46609 25.8005C1.42126 25.8042 1.37643 25.8079 1.30904 25.8191C1.28648 25.8268 1.26672 25.8349 1.26672 25.8349C1.26672 25.8349 1.24534 25.834 1.24043 25.8107C1.22393 25.7541 1.21234 25.7207 1.20075 25.6873C1.18858 25.6901 1.1764 25.6928 1.16423 25.6956C1.16705 25.7367 1.16987 25.7779 1.17269 25.819C1.17269 25.819 1.17195 25.8205 1.1719 25.8213C0.806379 25.763 0.437293 25.6915 0.296866 25.287C0.23267 25.102 0.212943 24.8935 0.212785 24.6956C0.20865 19.4642 0.209158 14.2328 0.21364 9.00138C0.213736 8.88895 0.269673 8.77657 0.300839 8.64634C0.551799 8.56607 0.678999 8.34755 0.861928 8.19873C1.07331 8.02676 1.25386 7.809 1.47856 7.66973C1.76227 7.49388 1.94507 7.2155 2.22111 7.04183C2.30777 6.9873 2.39557 6.9346 2.48198 6.87969C2.51643 6.8578 2.55089 6.83487 2.5813 6.80786C2.71943 6.68514 2.85861 6.56342 2.99239 6.43605C3.07091 6.36129 3.14001 6.27663 3.21379 6.17966C3.22178 6.16272 3.22932 6.16254 3.2623 6.16014C3.308 6.12968 3.32827 6.10144 3.34853 6.0732C3.57181 5.92138 3.79501 5.76944 4.01851 5.61794C4.03674 5.60559 4.06818 5.60082 4.07469 5.58486C4.18795 5.30705 4.43408 5.20266 4.68431 5.09116C4.74365 5.06472 4.76338 4.94938 4.82403 4.87947C5.03127 4.76913 5.2158 4.65424 5.40033 4.53935C5.3738 4.51224 5.34727 4.48512 5.32074 4.458C5.41503 4.36926 5.50931 4.28052 5.6333 4.18822C5.68371 4.15594 5.7044 4.12723 5.72509 4.09851C5.74985 4.09095 5.77461 4.08338 5.82279 4.06481C5.88024 4.02398 5.91427 3.99415 5.94831 3.96433C5.94831 3.96433 5.94897 3.96467 5.96459 3.96284C6.10413 3.82739 6.22804 3.69376 6.35194 3.56013C6.52238 3.40048 6.69281 3.24084 6.88447 3.0842C6.93049 3.06574 6.95528 3.04426 6.98008 3.02278C6.98008 3.02278 6.98035 3.02306 6.99451 3.02103C7.02911 2.99054 7.04954 2.96208 7.06997 2.93363C7.08194 2.91136 7.09391 2.8891 7.11109 2.85527C7.33134 2.82314 7.51701 2.76481 7.62134 2.54386C7.64692 2.4897 7.76962 2.48908 7.81799 2.43653C7.95032 2.29275 8.06685 2.13441 8.18965 1.96495C8.25559 1.90678 8.3215 1.86552 8.40907 1.82813C8.45507 1.81057 8.47941 1.78913 8.50375 1.76769C8.50375 1.76769 8.50472 1.7673 8.52245 1.76719C8.64185 1.72001 8.83569 1.64574 8.83106 1.63003C8.77975 1.45612 8.93861 1.44537 9.00725 1.36743C9.04175 1.32826 9.06097 1.27564 9.0871 1.2291C9.10175 1.19369 9.1164 1.15829 9.1487 1.10859C9.23006 1.04913 9.29376 1.00397 9.35747 0.958805C9.37719 0.959019 9.39692 0.959234 9.44805 0.959334C9.51323 0.914718 9.54699 0.870218 9.58076 0.825716C9.58076 0.825716 9.58108 0.825853 9.59751 0.823788C9.93159 0.751154 9.98325 0.360086 10.282 0.264944C10.2926 0.261567 10.2924 0.224312 10.2973 0.202845C10.4784 0.201572 10.6595 0.200299 10.8616 0.216031C10.9339 0.393998 10.9964 0.335339 11.0607 0.242078C11.0809 0.242344 11.101 0.242611 11.1363 0.243451C11.2714 0.386561 11.3779 0.54439 11.5165 0.665653C11.5942 0.733716 11.7249 0.74131 11.8493 0.778272C11.8676 0.787848 11.8683 0.795302 11.8692 0.830544C11.9444 0.984306 11.973 1.16183 12.1818 1.13888C12.1818 1.13888 12.1819 1.13964 12.182 1.1587C12.1601 1.458 12.3686 1.33954 12.4969 1.35983C12.511 1.3819 12.5251 1.40398 12.542 1.4556C12.6032 1.5193 12.6616 1.55345 12.7201 1.5876C12.7201 1.5876 12.7199 1.58812 12.7203 1.60494C12.7803 1.67014 12.8398 1.71852 12.8994 1.76691C12.8994 1.76691 12.8993 1.76749 12.8999 1.78438C13.0776 1.9093 13.2548 2.01733 13.4319 2.12536C13.4335 2.13278 13.4351 2.14019 13.4379 2.17518C13.5909 2.46442 13.764 2.69802 14.1063 2.70834C14.1196 2.7305 14.1329 2.75265 14.151 2.80413C14.2326 2.92125 14.3095 3.00905 14.4058 3.11906C14.3981 3.1409 14.376 3.20338 14.3453 3.2901C14.4515 3.23448 14.5289 3.19395 14.6138 3.14951C14.6805 3.43469 14.7586 3.51095 15.0073 3.55966C15.0427 3.57081 15.0782 3.58197 15.1261 3.6135C15.1733 3.68303 15.2045 3.73544 15.2443 3.78023C15.2725 3.81192 15.3116 3.83413 15.347 3.85906C15.3974 3.89466 15.4489 3.92888 15.4999 3.96369C15.4999 3.96369 15.5001 3.96457 15.5005 3.9819C15.5065 4.15373 15.6166 4.1457 15.7236 4.14234C15.7236 4.14234 15.7247 4.14361 15.7252 4.16096C15.7561 4.21379 15.784 4.25207 15.8177 4.2842C15.9082 4.37053 16.0278 4.43897 16.0871 4.54246C16.1818 4.70794 16.323 4.74827 16.4873 4.76813C16.4949 4.76924 16.5024 4.77036 16.5228 4.7886C16.6535 4.89863 16.7714 4.99152 16.8892 5.08442C16.912 5.12448 16.9349 5.16454 16.9706 5.22828C17.1207 5.47592 17.3264 5.61383 17.5629 5.71292C17.5773 5.71795 17.5889 5.72656 17.6046 5.76462C17.6699 5.83933 17.7284 5.88817 17.787 5.93701C17.8209 5.93756 17.8548 5.93812 17.9075 5.95371C17.9548 5.98682 17.9834 6.00488 18.012 6.02295C18.0194 6.02423 18.0269 6.02551 18.0456 6.04492C18.1164 6.12532 18.1761 6.18758 18.2359 6.24985C18.2855 6.28071 18.3352 6.31156 18.4003 6.36027C18.4568 6.43233 18.4957 6.48832 18.5395 6.54023C18.5847 6.59383 18.6619 6.63647 18.6772 6.69618C18.717 6.85129 18.8132 6.89032 18.9533 6.87738C18.9608 6.87797 18.9684 6.87857 18.9891 6.89436C19.0459 6.94281 19.0896 6.97604 19.1332 7.00928C19.2009 7.03295 19.2685 7.05663 19.3403 7.10577C19.3084 7.33189 19.4484 7.32288 19.5775 7.32689C19.6583 7.4161 19.7392 7.50531 19.8368 7.61234C19.9271 7.69324 20.0007 7.75633 20.0744 7.81941C20.1118 7.85988 20.1493 7.90036 20.1977 7.96766C20.2276 8.06789 20.2466 8.1413 20.2656 8.21472C20.3214 8.18772 20.3771 8.16073 20.4329 8.13373C20.453 8.13445 20.473 8.13517 20.5082 8.15276C20.5825 8.23256 20.6416 8.29547 20.7007 8.35838C20.7683 8.50211 20.8358 8.64584 20.9166 8.81776C20.8283 8.83048 20.7524 8.85031 20.6764 8.85087C20.2528 8.85399 19.829 8.84535 19.4057 8.8562C19.2493 8.8602 19.0948 8.91976 18.938 8.92856C18.832 8.93451 18.7234 8.89605 18.6048 8.84793C18.5544 8.78099 18.5207 8.72362 18.4747 8.71111C18.4149 8.69482 18.3454 8.71414 18.28 8.71814C18.28 8.71814 18.2801 8.71787 18.276 8.71066C18.2597 8.70829 18.2476 8.71313 18.2355 8.71798C18.2355 8.71798 18.2134 8.71829 18.2023 8.71862C18.051 8.50717 17.9264 8.28195 17.763 8.08988C17.6928 8.00746 17.5403 7.99729 17.4279 7.94807C17.3252 7.90307 17.2036 7.87148 17.13 7.79556C16.9611 7.62155 16.8165 7.42411 16.6514 7.26111C16.556 7.18762 16.4605 7.11413 16.3583 7.02716C16.3365 6.95879 16.3216 6.9039 16.3067 6.84901C16.0867 6.95121 15.9643 6.7989 15.8309 6.66978C15.8064 6.64614 15.7671 6.63796 15.7477 6.62882C15.7587 6.52915 15.7682 6.44358 15.7776 6.35801C15.6785 6.3638 15.5794 6.36958 15.4563 6.3803C15.4322 6.38524 15.4129 6.38251 15.4121 6.36471C15.3882 6.1509 15.0355 5.85215 14.8153 5.84949C14.8061 5.84912 14.7877 5.84879 14.7877 5.84879C14.7728 5.75717 14.7579 5.66555 14.7408 5.56015C14.6165 5.49882 14.4505 5.45058 14.4392 5.2905C14.2415 5.1943 14.0378 5.13334 13.8851 5.00952C13.7473 4.89783 13.6653 4.71733 13.5398 4.54048C13.5348 4.54257 13.4793 4.56585 13.4083 4.59077C13.1976 4.4246 13.0032 4.25593 12.8069 4.0895C12.7481 4.03966 12.6844 3.99552 12.6223 3.94976C12.5062 3.86431 12.3453 3.80956 12.4093 3.60121C12.338 3.57856 12.2775 3.55931 12.2114 3.53833C12.2039 3.52223 12.1869 3.50274 12.1866 3.483C12.1844 3.33694 12.113 3.2772 11.9738 3.21789C11.834 3.15833 11.7404 2.99878 11.6105 2.90546C11.4965 2.82358 11.3596 2.77383 11.2338 2.70788C11.0981 2.63666 10.9699 2.54458 10.8269 2.49496C10.6161 2.42183 10.3663 2.53737 10.215 2.6933C10.0642 2.84859 9.8759 2.96679 9.71007 3.1083C9.58767 3.21273 9.47493 3.32848 9.35719 3.45551C9.26151 3.52827 9.16427 3.58131 9.0721 3.64203C8.96066 3.71544 8.86002 3.84564 8.743 3.86078C8.56325 3.88403 8.50155 3.99295 8.41509 4.11393C8.34483 4.21225 8.22262 4.27374 8.15361 4.37261C8.00649 4.58341 7.84041 4.73887 7.56056 4.69935C7.55331 4.76042 7.54606 4.82149 7.54885 4.90915C7.53066 4.98572 7.50242 5.03568 7.47419 5.08564C7.47419 5.08564 7.47364 5.0858 7.45732 5.08603C7.39272 5.13049 7.34444 5.17473 7.29616 5.21896C7.29616 5.21896 7.29472 5.22044 7.29405 5.22123Z" fill="#E2624B"/>
<path d="M4.37427 25.4466C4.36119 25.7708 4.36123 25.7684 4.73584 25.7744C5.0523 25.7795 5.36866 25.7908 5.70603 25.7957C5.73001 25.8245 5.73301 25.857 5.73601 25.8895C5.29555 25.8867 4.85424 25.897 4.41542 25.8687C4.33982 25.8639 4.21455 25.6953 4.21383 25.6016C4.20096 23.9359 4.20164 22.2701 4.20821 20.6044C4.20865 20.4933 4.27946 20.3824 4.33644 20.2566C4.36391 20.242 4.37249 20.2421 4.38106 20.2422C4.37887 20.3477 4.37667 20.4533 4.35719 20.5839C4.32401 20.7117 4.30812 20.8144 4.29223 20.9172C4.30598 22.2033 4.31973 23.4895 4.32173 24.8067C4.31738 24.9053 4.3248 24.9728 4.33221 25.0402C4.33246 25.1026 4.33271 25.165 4.32152 25.2564C4.33148 25.3391 4.35287 25.3928 4.37427 25.4466Z" fill="#E2624B"/>
<path d="M5.7842 25.6601C5.75605 25.5898 5.72796 25.5054 5.72748 25.4208C5.72381 24.7687 5.72548 24.1165 5.72548 23.4429C5.77012 23.5135 5.85432 23.6063 5.85307 23.6979C5.84421 24.3473 5.81785 24.9965 5.7842 25.6601Z" fill="#E2624B"/>
<path d="M9.58757 25.6815C9.57817 24.9619 9.57545 24.2531 9.58533 23.5444C9.58673 23.4439 9.64944 23.3443 9.69966 23.2354C9.70162 23.3769 9.67471 23.5274 9.67605 23.6777C9.68165 24.3098 9.69766 24.9418 9.70192 25.5739C9.70219 25.6131 9.63439 25.6528 9.58757 25.6815Z" fill="#E2624B"/>
<path d="M4.3973 20.2401C4.37233 20.2418 4.36376 20.2417 4.34229 20.241C4.39505 19.9424 4.66126 19.8987 4.90187 19.8027C4.90389 19.8498 4.88963 19.8961 4.87417 19.9571C4.71988 20.0607 4.56679 20.1495 4.3973 20.2401Z" fill="#E2624B"/>
<path d="M9.72819 23.2098C9.72399 23.1899 9.73136 23.1576 9.75066 23.1133C9.75498 23.1333 9.74737 23.1654 9.72819 23.2098Z" fill="#E2624B"/>
<path d="M20.9553 25.3637C20.999 25.3554 21.0329 25.3545 21.0838 25.353C21.0545 25.4587 21.0082 25.5649 20.9475 25.6776C20.9346 25.6126 20.9363 25.5412 20.9316 25.4553C20.9321 25.4176 20.9388 25.3944 20.9553 25.3637Z" fill="#E2624B"/>
<path d="M10.8056 23.4619C10.7806 23.4489 10.7648 23.4281 10.7495 23.3936C10.7716 23.4046 10.7932 23.4293 10.8056 23.4619Z" fill="#E2624B"/>
<path d="M13.7063 9.38965C13.7105 9.57949 13.7179 9.76933 13.7179 9.95918C13.718 10.1523 13.7086 10.3453 13.7075 10.5384C13.7055 10.877 13.7136 11.2158 13.7002 11.5538C13.6978 11.6147 13.6234 11.6929 13.5622 11.7259C13.4952 11.7621 13.405 11.765 13.3248 11.7655C12.8487 11.7688 12.3725 11.7685 11.8963 11.7659C11.8235 11.7655 11.7508 11.7473 11.6579 11.7138C11.58 11.6708 11.5222 11.6513 11.4644 11.6318C11.4495 11.5251 11.4346 11.4184 11.4325 11.2796C11.4516 11.0469 11.4579 10.8464 11.4641 10.6459C11.4494 10.4361 11.4346 10.2263 11.4324 9.98272C11.4365 9.80681 11.4282 9.66474 11.4199 9.52267C11.468 9.47858 11.5162 9.43448 11.6026 9.39033C12.3294 9.39006 13.0179 9.38985 13.7063 9.38965Z" fill="#E2624B"/>
<path d="M13.7023 9.37256C13.0181 9.39034 12.3296 9.39054 11.6201 9.39071C11.6496 9.36084 11.6999 9.30556 11.7508 9.30505C12.3548 9.29907 12.9588 9.30012 13.5629 9.30362C13.608 9.30388 13.6529 9.33709 13.7023 9.37256Z" fill="#E2624B"/>
<path d="M11.4466 10.6504C11.458 10.8467 11.4518 11.0472 11.4326 11.2611C11.4228 11.0679 11.4259 10.8612 11.4466 10.6504Z" fill="#E2624B"/>
<path d="M11.4073 9.53613C11.4283 9.66511 11.4366 9.80718 11.4325 9.96256C11.4116 9.83366 11.4031 9.69145 11.4073 9.53613Z" fill="#E2624B"/>
<path d="M11.4673 11.6484C11.5221 11.6519 11.5799 11.6713 11.6407 11.7068C11.5859 11.7034 11.5281 11.6839 11.4673 11.6484Z" fill="#E2624B"/>
<path d="M9.89482 9.39026C9.91689 9.40204 9.93896 9.41382 9.97272 9.45167C9.98449 10.226 9.98458 10.9742 9.98467 11.7224C9.59319 11.7341 9.20176 11.7508 8.81019 11.7557C8.56678 11.7587 8.32289 11.7343 8.07968 11.7403C7.90661 11.7447 7.77671 11.7466 7.77966 11.5099C7.78094 11.4067 7.66531 11.3045 7.65879 11.1984C7.64126 10.9131 7.65725 10.6258 7.65316 10.3394C7.65111 10.196 7.63234 10.053 7.62469 9.90959C7.61718 9.76891 7.5963 9.62516 7.61794 9.48856C7.62669 9.43335 7.73266 9.39354 7.82665 9.35938C8.53755 9.3781 9.21619 9.38418 9.89482 9.39026Z" fill="#E2624B"/>
<path d="M10.0026 11.7184C9.98478 10.9745 9.98469 10.2263 9.98438 9.45703C10.0143 9.48635 10.0702 9.53644 10.0706 9.58701C10.0765 10.2511 10.0755 10.9152 10.0721 11.5793C10.0719 11.6244 10.0383 11.6692 10.0026 11.7184Z" fill="#E2624B"/>
<path d="M9.89031 9.37271C9.21588 9.38425 8.53725 9.37817 7.84473 9.35943C7.88556 9.33159 7.94021 9.30352 7.995 9.30321C8.57326 9.3 9.15156 9.29983 9.72981 9.30355C9.78202 9.30388 9.83401 9.33712 9.89031 9.37271Z" fill="#E2624B"/>
<path d="M2.11237 25.2628C2.09403 24.8699 2.09842 24.4715 2.09055 24.0733C2.0829 23.6863 2.04847 23.2996 2.05037 22.9128C2.05978 21.0015 2.07811 19.0902 2.09151 17.1789C2.09499 16.6818 2.09742 16.1846 2.09021 15.6876C2.08535 15.3529 2.04838 15.0185 2.05052 14.6841C2.05922 13.3183 2.07803 11.9525 2.0912 10.5867C2.09241 10.4605 2.07467 10.334 2.07763 10.2079C2.07841 10.1743 2.12328 10.1417 2.16468 10.1084C2.18168 15.0824 2.18214 20.0567 2.17997 25.031C2.17994 25.1065 2.14721 25.182 2.11237 25.2628Z" fill="#E2624B"/>
<path d="M4.48761 7.50818C4.46005 7.39839 4.48857 7.34963 4.61719 7.3169C4.73079 7.288 4.81862 7.16278 4.92154 7.08498C4.97924 7.04137 5.04447 7.00771 5.12401 6.96973C5.12646 7.16236 4.94784 7.36216 4.74637 7.41686C4.69993 7.42948 4.65661 7.45363 4.60794 7.48795C4.57075 7.50488 4.53748 7.50632 4.48761 7.50818Z" fill="#E2624B"/>
<path d="M1.79953 25.8014C1.78122 25.794 1.78126 25.7813 1.78411 25.7806C1.97886 25.7349 2.02555 25.5759 2.08062 25.4048C2.10958 25.4292 2.13005 25.4601 2.13887 25.4939C2.21292 25.7783 2.19608 25.8 1.90773 25.8019C1.87822 25.8021 1.84871 25.8018 1.79953 25.8014Z" fill="#E2624B"/>
<path d="M1.48438 25.8011C1.51015 25.7624 1.55363 25.724 1.59712 25.6855C1.61277 25.7137 1.62843 25.7418 1.64397 25.7853C1.5966 25.8009 1.54934 25.8012 1.48438 25.8011Z" fill="#E2624B"/>
<path d="M17.5613 5.69801C17.3264 5.61401 17.1208 5.47609 16.9819 5.23633C17.1162 5.26605 17.252 5.31158 17.4039 5.35999C17.4665 5.46956 17.5131 5.57624 17.5613 5.69801Z" fill="#E2624B"/>
<path d="M18.9509 6.86272C18.8136 6.89064 18.7173 6.85161 18.6775 6.6965C18.6622 6.63679 18.585 6.59416 18.5398 6.54056C18.496 6.48865 18.4571 6.43265 18.416 6.3623C18.5935 6.51335 18.7709 6.68055 18.9509 6.86272Z" fill="#E2624B"/>
<path d="M20.4315 8.11744C20.3777 8.16081 20.3219 8.18781 20.2661 8.2148C20.2472 8.14139 20.2282 8.06798 20.2095 7.97607C20.283 8.00541 20.3562 8.05323 20.4315 8.11744Z" fill="#E2624B"/>
<path d="M19.5784 7.31061C19.4484 7.32319 19.3084 7.33221 19.3503 7.11768C19.4306 7.1672 19.505 7.23061 19.5784 7.31061Z" fill="#E2624B"/>
<path d="M18.2827 8.73469C18.3451 8.7147 18.4146 8.69538 18.4745 8.71166C18.5204 8.72417 18.5542 8.78155 18.5932 8.8361C18.4906 8.81904 18.3882 8.78487 18.2827 8.73469Z" fill="#E2624B"/>
<path d="M20.0744 7.80321C20.0013 7.75644 19.9276 7.69336 19.8525 7.61523C19.9253 7.66242 19.9996 7.72465 20.0744 7.80321Z" fill="#E2624B"/>
<path d="M18.2344 6.23452C18.1766 6.18783 18.1168 6.12557 18.0571 6.04736C18.1156 6.09393 18.1741 6.15644 18.2344 6.23452Z" fill="#E2624B"/>
<path d="M20.7009 8.34272C20.6418 8.29582 20.5827 8.23291 20.5234 8.1543C20.5825 8.2013 20.6417 8.264 20.7009 8.34272Z" fill="#E2624B"/>
<path d="M17.7858 5.92102C17.7276 5.88819 17.669 5.83935 17.6089 5.77441C17.6667 5.80722 17.7261 5.85612 17.7858 5.92102Z" fill="#E2624B"/>
<path d="M19.1321 6.99318C19.0891 6.97603 19.0454 6.94279 19 6.89551C19.0426 6.91333 19.087 6.94521 19.1321 6.99318Z" fill="#E2624B"/>
<path d="M18.0095 6.00949C17.9833 6.00506 17.9548 5.987 17.9243 5.95508C17.9507 5.95944 17.9789 5.97765 18.0095 6.00949Z" fill="#E2624B"/>
<path d="M18.2466 8.71851C18.2476 8.71359 18.2601 8.70863 18.2766 8.71111C18.2806 8.71854 18.2579 8.71849 18.2466 8.71851Z" fill="#E2624B"/>
<path d="M11.3169 13.141C12.0598 13.125 12.8055 13.1189 13.5511 13.1131C13.623 13.1125 13.6949 13.113 13.7515 13.113C13.7515 13.2615 13.7515 13.3812 13.7515 13.5008C13.7514 14.1352 13.7476 14.7696 13.7537 15.404C13.7552 15.5696 13.6943 15.6273 13.5304 15.6258C12.8066 15.619 12.0827 15.6207 11.3367 15.6134C11.3191 15.5936 11.3223 15.5793 11.327 15.5318C11.3302 14.8529 11.3307 14.2069 11.3307 13.5608C11.3307 13.4379 11.3286 13.3149 11.3274 13.192C11.3244 13.1784 11.3218 13.1647 11.3169 13.141Z" fill="#E2624B"/>
<path d="M11.3128 13.2056C11.3285 13.3147 11.3306 13.4377 11.3306 13.5606C11.3306 14.2067 11.33 14.8527 11.3293 15.5208C11.3112 15.489 11.2785 15.4353 11.2783 15.3815C11.2748 14.6892 11.2758 13.9969 11.277 13.3046C11.277 13.2762 11.2909 13.2478 11.3128 13.2056Z" fill="#E2624B"/>
<path d="M7.60798 14.5923C7.60776 14.1444 7.60227 13.7187 7.6132 13.2934C7.61477 13.2321 7.69467 13.121 7.73955 13.1204C8.50683 13.1097 9.2743 13.1127 10.0768 13.1127C10.0768 13.2999 10.0738 13.4659 10.0773 13.6318C10.0896 14.2126 10.1004 14.7936 10.1199 15.3742C10.1258 15.55 10.0805 15.6299 9.88356 15.6269C9.20434 15.6166 8.52481 15.6174 7.84555 15.6263C7.65461 15.6287 7.59671 15.5571 7.60472 15.3761C7.61594 15.1228 7.60782 14.8686 7.60798 14.5923Z" fill="#E2624B"/>
<path d="M7.49072 5.08582C7.50252 5.03601 7.53075 4.98605 7.56138 4.92143C7.60212 4.9205 7.64047 4.93422 7.67881 4.94794C7.6216 4.99385 7.56438 5.03975 7.49072 5.08582Z" fill="#E2624B"/>
<path d="M7.31104 5.21808C7.34399 5.17486 7.39226 5.13062 7.45677 5.08643C7.42412 5.13 7.37524 5.17354 7.31104 5.21808Z" fill="#E2624B"/>
<path d="M10.2813 0.20166C10.2931 0.224695 10.2933 0.26195 10.2827 0.265327C9.98394 0.360469 9.93228 0.751538 9.59814 0.82402C9.73395 0.535051 9.90887 0.268874 10.2813 0.20166Z" fill="#E2624B"/>
<path d="M9.07091 1.22949C9.06126 1.27579 9.04204 1.32841 9.00754 1.36758C8.93891 1.44552 8.78005 1.45627 8.83135 1.63018C8.83598 1.6459 8.64215 1.72016 8.52295 1.76687C8.55442 1.6793 8.60343 1.59211 8.67076 1.50848C8.69298 1.51381 8.69687 1.51558 8.70076 1.51734C8.69627 1.51051 8.69179 1.50367 8.6873 1.49684C8.80968 1.40781 8.93205 1.31877 9.07091 1.22949Z" fill="#E2624B"/>
<path d="M9.34828 0.94873C9.29386 1.00438 9.23016 1.04954 9.15088 1.09472C9.2032 1.04257 9.2711 0.990406 9.34828 0.94873Z" fill="#E2624B"/>
<path d="M11.0501 0.230158C10.9964 0.335297 10.9338 0.393955 10.8823 0.217444C10.9346 0.207356 10.987 0.212818 11.0501 0.230158Z" fill="#E2624B"/>
<path d="M9.56425 0.826172C9.54703 0.870322 9.51327 0.914823 9.46289 0.959397C9.48008 0.915153 9.51389 0.870838 9.56425 0.826172Z" fill="#E2624B"/>
<path d="M8.4905 1.76855C8.47929 1.78909 8.45495 1.81054 8.42285 1.82195C8.43586 1.79777 8.45661 1.78361 8.4905 1.76855Z" fill="#E2624B"/>
<path d="M17.7759 8.5479C17.788 8.522 17.8041 8.49318 17.8202 8.46436C17.8306 8.47136 17.8409 8.47837 17.8513 8.48538C17.8346 8.50476 17.818 8.52414 17.788 8.5484C17.7746 8.55329 17.7798 8.54498 17.7759 8.5479Z" fill="#E2624B"/>
<path d="M5.30721 4.46582C5.34757 4.48566 5.3741 4.51278 5.40063 4.5399C5.2161 4.65479 5.03157 4.76967 4.8374 4.8729C4.88679 4.78193 4.94581 4.70264 5.0063 4.60824C5.10298 4.55313 5.19818 4.51311 5.30721 4.46582Z" fill="#E2624B"/>
<path d="M3.33408 6.0752C3.32809 6.10171 3.30782 6.12995 3.27344 6.1601C3.27949 6.13364 3.29965 6.10528 3.33408 6.0752Z" fill="#E2624B"/>
<path d="M14.1062 2.69265C13.7641 2.69822 13.591 2.46462 13.4399 2.1866C13.4865 2.171 13.5323 2.17175 13.5952 2.17421C13.6992 2.26223 13.7869 2.34783 13.8729 2.43505C13.9515 2.51472 14.0283 2.59613 14.1062 2.69265Z" fill="#E2624B"/>
<path d="M13.4293 2.11321C13.255 2.01768 13.0778 1.90965 12.9004 1.78467C13.0297 1.81067 13.1674 1.83871 13.2857 1.90254C13.3497 1.93702 13.3807 2.03265 13.4293 2.11321Z" fill="#E2624B"/>
<path d="M12.4967 1.3435C12.369 1.33979 12.1604 1.45824 12.1828 1.159C12.3224 1.14366 12.4652 1.1416 12.4967 1.3435Z" fill="#E2624B"/>
<path d="M12.179 1.1245C11.9727 1.16237 11.9441 0.984846 11.8696 0.842285C11.9723 0.920326 12.0744 1.01495 12.179 1.1245Z" fill="#E2624B"/>
<path d="M12.9 1.74974C12.8405 1.71908 12.7809 1.6707 12.7212 1.60544C12.8244 1.58183 12.9151 1.59099 12.9 1.74974Z" fill="#E2624B"/>
<path d="M12.7198 1.57063C12.6618 1.55354 12.6034 1.51938 12.5435 1.46924C12.6011 1.48669 12.6602 1.52012 12.7198 1.57063Z" fill="#E2624B"/>
<path d="M13.6574 4.95416C13.6328 4.95718 13.6086 4.94519 13.5762 4.92253C13.5979 4.92097 13.6279 4.93006 13.6574 4.95416Z" fill="#E2624B"/>
<path d="M14.7844 5.8618C14.7873 5.84902 14.806 5.84936 14.8105 5.8596C14.8058 5.88175 14.7946 5.89122 14.7814 5.89825C14.7814 5.89825 14.7782 5.89991 14.7764 5.8999C14.7768 5.89145 14.7791 5.88301 14.7844 5.8618Z" fill="#E2624B"/>
<path d="M6.33648 3.5625C6.22795 3.69431 6.10404 3.82794 5.96436 3.96306C6.07275 3.83114 6.19692 3.69773 6.33648 3.5625Z" fill="#E2624B"/>
<path d="M5.71591 4.08887C5.7043 4.12751 5.68361 4.15623 5.64844 4.18664C5.65824 4.15188 5.68253 4.11541 5.71591 4.08887Z" fill="#E2624B"/>
<path d="M5.93277 3.96484C5.91444 3.99434 5.8804 4.02416 5.83057 4.05415C5.84887 4.0246 5.88297 3.99488 5.93277 3.96484Z" fill="#E2624B"/>
<path d="M7.05549 2.93604C7.0493 2.96252 7.02887 2.99098 6.99414 3.02133C7.00031 2.99482 7.02078 2.96641 7.05549 2.93604Z" fill="#E2624B"/>
<path d="M6.96692 3.02441C6.95533 3.04473 6.93054 3.06621 6.89795 3.07755C6.91134 3.05347 6.93253 3.03952 6.96692 3.02441Z" fill="#E2624B"/>
<path d="M5.29248 6.87952C5.41006 6.48814 5.78577 6.34442 6.08461 6.14073C6.23934 6.03526 6.29157 5.94422 6.28861 5.83075C6.50823 5.72657 6.70637 5.63259 6.92121 5.53809C6.88179 5.60205 6.838 5.69375 6.76719 5.72587C6.55766 5.82092 6.44122 6.00072 6.30549 6.1848C6.1681 6.28443 6.03365 6.36664 5.90428 6.45619C5.70413 6.5947 5.50745 6.73823 5.29248 6.87952Z" fill="#E2624B"/>
<path d="M5.15686 6.96721C5.13884 6.91568 5.13509 6.86238 5.13135 6.80908C5.16067 6.82438 5.19 6.83969 5.22586 6.86754C5.21197 6.90855 5.19155 6.93699 5.15686 6.96721Z" fill="#E2624B"/>
<path d="M15.0055 3.54448C14.7587 3.51112 14.6806 3.43486 14.6138 3.14969C14.529 3.19412 14.4516 3.23465 14.3454 3.29027C14.376 3.20355 14.3981 3.14107 14.4058 3.11924C14.3095 3.00922 14.2327 2.92142 14.1567 2.81592C14.3374 2.88895 14.5171 2.97968 14.7128 3.07357C14.7639 3.16377 14.7895 3.25655 14.8372 3.33615C14.8802 3.40797 14.9472 3.46537 15.0055 3.54448Z" fill="#E2624B"/>
<path d="M16.4841 4.75337C16.3228 4.74838 16.1816 4.70806 16.0869 4.54258C16.0276 4.43908 15.908 4.37064 15.8175 4.28432C15.7838 4.25218 15.7559 4.21391 15.7256 4.16162C15.8445 4.1761 15.9633 4.20739 16.0979 4.24318C16.2361 4.41129 16.3586 4.57489 16.4841 4.75337Z" fill="#E2624B"/>
<path d="M15.4983 3.94928C15.4486 3.92908 15.3971 3.89487 15.3467 3.85926C15.3113 3.83434 15.2722 3.81212 15.244 3.78043C15.2042 3.73564 15.173 3.68323 15.1387 3.61941C15.3167 3.52562 15.3696 3.66779 15.4362 3.77673C15.4652 3.82406 15.4773 3.88171 15.4983 3.94928Z" fill="#E2624B"/>
<path d="M15.7236 4.12536C15.6166 4.14581 15.5065 4.15384 15.501 3.98212C15.6065 3.96408 15.718 3.95408 15.7236 4.12536Z" fill="#E2624B"/>
<path d="M15.4129 6.38281C15.4129 6.38281 15.4321 6.38555 15.4417 6.3871C15.4295 6.40245 15.4078 6.41626 15.3725 6.43143C15.3443 6.42859 15.3324 6.42044 15.3354 6.39796C15.3693 6.38599 15.3911 6.3844 15.4129 6.38281Z" fill="#E2624B"/>
<path d="M1.18086 25.8238C1.1697 25.7781 1.16688 25.7369 1.16406 25.6958C1.17624 25.693 1.18841 25.6903 1.20058 25.6875C1.21217 25.7209 1.22376 25.7543 1.23072 25.8051C1.22608 25.8226 1.20817 25.8289 1.20817 25.8289C1.20817 25.8289 1.1892 25.8283 1.18086 25.8238Z" fill="#E2624B"/>
<path d="M16.8952 5.07263C16.7714 4.99193 16.6535 4.89904 16.5342 4.79102C16.6543 4.83391 16.7759 4.89194 16.9122 4.95435C16.9183 4.99263 16.9097 5.02654 16.8952 5.07263Z" fill="#E2624B"/>
<path d="M6.99463 5.39835C7.00064 5.37178 7.0209 5.34311 7.05549 5.3125C7.04951 5.33912 7.0292 5.36769 6.99463 5.39835Z" fill="#E2624B"/>
<path d="M15.4118 6.36512C15.3908 6.38451 15.369 6.3861 15.3308 6.388C15.2354 6.33008 15.1565 6.27184 15.0653 6.2039C15.0276 6.16293 15.0021 6.13166 14.9683 6.11055C14.9317 6.10067 14.9035 6.08065 14.8653 6.05243C14.8328 6.00438 14.8103 5.96454 14.7847 5.91121C14.7945 5.89079 14.8056 5.88146 14.8194 5.86C15.0352 5.85256 15.3879 6.15131 15.4118 6.36512Z" fill="#E2624B"/>
<path d="M4.30862 20.9124C4.30786 20.8143 4.32376 20.7116 4.35554 20.6035C4.35604 20.7013 4.34065 20.8045 4.30862 20.9124Z" fill="#E2624B"/>
<path d="M4.34399 25.0301C4.32433 24.9728 4.31692 24.9053 4.32083 24.8271C4.34018 24.8843 4.3482 24.9521 4.34399 25.0301Z" fill="#E2624B"/>
<path d="M4.37608 25.4297C4.35301 25.3927 4.33162 25.3389 4.32129 25.2749C4.34749 25.3141 4.36263 25.3636 4.37608 25.4297Z" fill="#E2624B"/>
<path d="M20.8819 25.4456C20.8768 25.4397 20.8715 25.4333 20.8662 25.4268C20.8699 25.429 20.8736 25.4313 20.8801 25.4395C20.8829 25.4454 20.8817 25.4449 20.8819 25.4456Z" fill="#E2624B"/>
<path d="M5.88004 4.12C5.87781 4.12128 5.88227 4.11872 5.88004 4.12V4.12Z" fill="#E2624B"/>
<path d="M8.68596 1.49756C8.69199 1.50371 8.69672 1.51092 8.70146 1.51814C8.69735 1.51628 8.69324 1.51441 8.68584 1.50689C8.68254 1.50122 8.68466 1.49862 8.68596 1.49756Z" fill="#E2624B"/>
</svg>
