<svg width="32" height="32" viewBox="0 0 32 32" fill="none" xmlns="http://www.w3.org/2000/svg">
<path d="M13 14L16.258 16.444C16.4598 16.5954 16.7114 16.6649 16.9624 16.6385C17.2133 16.6122 17.445 16.492 17.611 16.302L24 9" stroke="#E2624B" stroke-width="2" stroke-linecap="round"/>
<path d="M25 15.9998C25 17.8804 24.411 19.7137 23.3157 21.2423C22.2203 22.7708 20.6736 23.9179 18.8929 24.5224C17.1122 25.1269 15.1868 25.1583 13.3873 24.6124C11.5878 24.0665 10.0044 22.9706 8.85967 21.4787C7.71492 19.9867 7.06627 18.1736 7.00481 16.2941C6.94335 14.4146 7.47218 12.563 8.51702 10.9995C9.56187 9.43595 11.0702 8.23896 12.8303 7.57665C14.5903 6.91435 16.5136 6.81999 18.33 7.30684" stroke="#E2624B" stroke-width="2" stroke-linecap="round"/>
</svg>
