<svg width="32" height="32" viewBox="0 0 32 32" fill="none" xmlns="http://www.w3.org/2000/svg">
<path d="M14.6537 19.3786V22.9392C14.6537 23.5792 14.6537 24.1461 14.7264 24.5628C14.7614 24.7749 14.8315 25.0376 14.9984 25.2798C15.1869 25.55 15.545 25.8447 16.1427 25.9592C16.3938 26.0049 16.6561 26.0123 16.9117 25.9809C17.1672 25.9495 17.4101 25.88 17.6236 25.7772C17.9145 25.6334 18.1692 25.4571 18.3775 25.2554C18.8274 24.8134 19.2426 24.3547 19.6214 23.8814L19.6672 23.8289L23.1567 19.6939L23.2132 19.6244C24.2256 18.4269 25.0603 17.4359 25.5315 16.625C26.0161 15.7917 26.2665 14.8907 25.5692 14.0386C24.8691 13.1864 23.6252 12.8823 22.3489 12.7491C21.1077 12.6214 19.4572 12.6214 17.4593 12.6214H17.3463V9.06083C17.3463 8.42078 17.3463 7.85393 17.2736 7.43724C17.2404 7.18941 17.1485 6.94712 17.0016 6.72024C16.8922 6.55629 16.7333 6.41072 16.5358 6.29346C16.3383 6.1762 16.1069 6.09001 15.8573 6.04077C15.6062 5.99508 15.3439 5.98769 15.0883 6.01911C14.8328 6.05053 14.5899 6.12002 14.3764 6.22284C14.0855 6.36658 13.8308 6.5429 13.6225 6.74464C13.1726 7.18663 12.7574 7.64529 12.3786 8.11858L12.3328 8.17114L8.84332 12.3061L8.78678 12.3756C7.7744 13.5731 6.93972 14.5641 6.46853 15.375C5.98388 16.2083 5.73348 17.1093 6.43084 17.9614C7.13089 18.8136 8.37483 19.1177 9.65107 19.2509C10.8923 19.3786 12.5428 19.3786 14.5407 19.3786H14.6537Z" stroke="#E2624B" stroke-width="2"/>
</svg>
