<svg width="24" height="24" viewBox="0 0 24 24" fill="none" xmlns="http://www.w3.org/2000/svg">
<path d="M9.47267 4.21457C7.80742 4.79227 6.3713 5.88875 5.37527 7.34296C4.37923 8.79717 3.87579 10.5325 3.93888 12.294C4.00196 14.0554 4.62826 15.7503 5.72577 17.1295C6.82328 18.5087 8.33416 19.4997 10.0365 19.9568C11.4166 20.3129 12.8625 20.3285 14.25 20.0023C15.5069 19.72 16.669 19.1161 17.6224 18.2497C18.6147 17.3205 19.335 16.1384 19.7057 14.8305C20.1088 13.4082 20.1805 11.9124 19.9154 10.4581H12.1654V13.6729H16.6537C16.564 14.1856 16.3717 14.675 16.0885 15.1117C15.8053 15.5485 15.4368 15.9236 15.0052 16.2146C14.4572 16.5771 13.8393 16.821 13.1914 16.9307C12.5416 17.0515 11.8751 17.0515 11.2253 16.9307C10.5667 16.7945 9.94364 16.5227 9.39585 16.1325C8.51584 15.5096 7.85507 14.6246 7.50783 13.6039C7.15472 12.564 7.15472 11.4367 7.50783 10.3969C7.755 9.66798 8.1636 9.00433 8.70314 8.45546C9.32058 7.8158 10.1023 7.35858 10.9625 7.13394C11.8226 6.90931 12.7281 6.92594 13.5794 7.18202C14.2445 7.38618 14.8527 7.74288 15.3555 8.22369C15.8616 7.72021 16.3668 7.21544 16.8711 6.70936C17.1315 6.43723 17.4154 6.17811 17.6719 5.89947C16.9044 5.18524 16.0035 4.62949 15.0209 4.26405C13.2314 3.6143 11.2734 3.59684 9.47267 4.21457Z" fill="white"/>
<path d="M9.47298 4.2152C11.2736 3.59705 13.2316 3.61405 15.0212 4.26338C16.004 4.6313 16.9045 5.18973 17.6709 5.90661C17.4105 6.18526 17.1357 6.44567 16.8701 6.71651C16.3649 7.22085 15.8601 7.72345 15.3558 8.22432C14.853 7.74351 14.2448 7.38681 13.5798 7.18265C12.7287 6.92567 11.8233 6.90808 10.9629 7.1318C10.1024 7.35551 9.32026 7.8119 8.70215 8.45088C8.16261 8.99976 7.75401 9.6634 7.50684 10.3923L4.80762 8.30244C5.77377 6.38651 7.44661 4.92096 9.47298 4.2152Z" fill="#E33629"/>
<path d="M4.09114 10.373C4.23622 9.65403 4.47708 8.95772 4.80729 8.30273L7.50651 10.3978C7.1534 11.4376 7.1534 12.565 7.50651 13.6048C6.6072 14.2993 5.70746 14.9972 4.80729 15.6986C3.98066 14.0531 3.72855 12.1784 4.09114 10.373Z" fill="#F8BD00"/>
<path d="M12.1656 10.457H19.9156C20.1807 11.9114 20.109 13.4071 19.706 14.8294C19.3352 16.1373 18.6149 17.3195 17.6226 18.2487C16.7516 17.569 15.8766 16.8945 15.0055 16.2148C15.4373 15.9235 15.8059 15.548 16.0892 15.1108C16.3725 14.6737 16.5645 14.1838 16.6539 13.6706H12.1656C12.1643 12.6003 12.1656 11.5286 12.1656 10.457Z" fill="#587DBD"/>
<path d="M4.80566 15.6973C5.70584 15.0028 6.60558 14.3049 7.50488 13.6035C7.85281 14.6246 8.51452 15.5096 9.39551 16.1322C9.945 16.5205 10.5694 16.7901 11.2288 16.9238C11.8787 17.0447 12.5452 17.0447 13.195 16.9238C13.8429 16.8142 14.4607 16.5702 15.0088 16.2077C15.8799 16.8874 16.7549 17.5618 17.626 18.2415C16.6727 19.1084 15.5106 19.7127 14.2536 19.9954C12.8661 20.3216 11.4201 20.306 10.04 19.9499C8.9485 19.6584 7.92894 19.1447 7.04525 18.4408C6.10991 17.6982 5.34597 16.7623 4.80566 15.6973Z" fill="#319F43"/>
</svg>
