<svg width="32" height="32" viewBox="0 0 32 32" fill="none" xmlns="http://www.w3.org/2000/svg">
<path d="M20 2.6665H8.00004C7.2928 2.6665 6.61452 2.94746 6.11442 3.44755C5.61433 3.94765 5.33337 4.62593 5.33337 5.33317V26.6665C5.33337 27.3737 5.61433 28.052 6.11442 28.5521C6.61452 29.0522 7.2928 29.3332 8.00004 29.3332H24C24.7073 29.3332 25.3856 29.0522 25.8857 28.5521C26.3858 28.052 26.6667 27.3737 26.6667 26.6665V9.33317L20 2.6665Z" stroke="#E2624B" stroke-width="2" stroke-linecap="round" stroke-linejoin="round"/>
<path d="M18.6666 2.6665V7.99984C18.6666 8.70708 18.9476 9.38536 19.4477 9.88546C19.9478 10.3856 20.626 10.6665 21.3333 10.6665H26.6666" stroke="#E2624B" stroke-width="2" stroke-linecap="round" stroke-linejoin="round"/>
<path d="M13.3333 12H10.6666" stroke="#E2624B" stroke-width="2" stroke-linecap="round" stroke-linejoin="round"/>
<path d="M21.3333 17.3335H10.6666" stroke="#E2624B" stroke-width="2" stroke-linecap="round" stroke-linejoin="round"/>
<path d="M21.3333 22.6665H10.6666" stroke="#E2624B" stroke-width="2" stroke-linecap="round" stroke-linejoin="round"/>
</svg>
